<svg xmlns="http://www.w3.org/2000/svg" width="60" height="53" viewBox="0 0 60 53" fill="none">
                                <path d="M16.3638 18.4278L29.7362 10.3926L43.1086 18.1932M16.3638 18.4278L29.7362 26.1111M16.3638 18.4278V34.4395L29.7362 42.0055M43.1086 18.1932L29.7362 26.1111M43.1086 18.1932V34.2049L29.7362 42.0055M29.7362 26.1111V42.0055" stroke="white"></path>
                                <path d="M14.4867 26.2285H3.63623" stroke="white"></path>
                                <path d="M19.4135 13.6176H14.8387L10.9678 7.16602" stroke="white"></path>
                                <circle cx="10.557" cy="6.34604" r="2.34604" fill="white"></circle>
                                <path d="M19.4135 38.8374L14.8387 38.8374L10.9678 45.2891" stroke="white"></path>
                                <circle cx="2.34604" cy="2.34604" r="2.34604" transform="matrix(1 -8.74228e-08 -8.74228e-08 -1 8.21143 48.457)" fill="white"></circle>
                                <path d="M14.5454 20.1876H12.3753L6.04102 14.0879" stroke="white"></path>
                                <circle cx="5.51303" cy="13.1488" r="2.34604" fill="white"></circle>
                                <path d="M14.5454 32.1522L12.3753 32.1522L6.04102 38.252" stroke="white"></path>
                                <circle cx="2.34604" cy="2.34604" r="2.34604" transform="matrix(1 1.74846e-07 1.74846e-07 -1 3.16699 41.5371)" fill="white"></circle>
                                <circle cx="2.34604" cy="26.1703" r="2.34604" fill="white"></circle>
                                <path d="M45.5133 26.2285H56.3638" stroke="white"></path>
                                <path d="M40.5865 13.6176H45.1613L49.0322 7.16602" stroke="white"></path>
                                <circle cx="2.34604" cy="2.34604" r="2.34604" transform="matrix(-1 0 0 1 51.7891 4)" fill="white"></circle>
                                <path d="M40.5865 38.8374L45.1613 38.8374L49.0322 45.2891" stroke="white"></path>
                                <circle cx="49.4425" cy="46.111" r="2.34604" transform="rotate(-180 49.4425 46.111)" fill="white"></circle>
                                <path d="M45.4546 20.1876H47.6247L53.959 14.0879" stroke="white"></path>
                                <circle cx="2.34604" cy="2.34604" r="2.34604" transform="matrix(-1 0 0 1 56.833 10.8027)" fill="white"></circle>
                                <path d="M45.4546 32.1522L47.6247 32.1522L53.959 38.252" stroke="white"></path>
                                <circle cx="54.487" cy="39.1911" r="2.34604" transform="rotate(180 54.487 39.1911)" fill="white"></circle>
                                <circle cx="2.34604" cy="2.34604" r="2.34604" transform="matrix(-1 0 0 1 60 23.8242)" fill="white"></circle>
                              </svg>