<svg width="61" height="61" viewBox="0 0 61 61" fill="none" xmlns="http://www.w3.org/2000/svg">
<g clip-path="url(#clip0_286_11207)">
<path d="M56.8094 6.49908C56.9891 6.49908 57.1671 6.53443 57.3332 6.60322C57.4992 6.672 57.6501 6.77286 57.7772 6.89996C57.9043 7.02706 58.0051 7.17793 58.0739 7.34399C58.1427 7.51006 58.1781 7.68804 58.1781 7.86779V52.9428C58.1781 53.3058 58.0339 53.6539 57.7772 53.9106C57.5205 54.1673 57.1724 54.3116 56.8094 54.3116H3.37186C3.00709 54.3116 2.65695 54.168 2.39728 53.9118C2.1376 53.6557 1.9893 53.3075 1.98438 52.9428V7.94281C1.9893 7.57808 2.1376 7.22994 2.39728 6.97378C2.65695 6.71761 3.00709 6.574 3.37186 6.57404H56.8094M56.8094 4.69904H3.37186C2.50983 4.69902 1.68278 5.04019 1.07148 5.64798C0.460178 6.25577 0.114329 7.08079 0.109375 7.94281V52.9428C0.114329 53.8048 0.460178 54.6298 1.07148 55.2376C1.68278 55.8454 2.50983 56.1866 3.37186 56.1866H56.8094C57.6697 56.1866 58.4947 55.8448 59.103 55.2365C59.7113 54.6282 60.0531 53.8031 60.0531 52.9428V7.94281C60.0531 7.51683 59.9692 7.09502 59.8062 6.70147C59.6432 6.30792 59.4042 5.95033 59.103 5.64912C58.8018 5.34791 58.4442 5.10901 58.0507 4.946C57.6571 4.78299 57.2353 4.69904 56.8094 4.69904Z" fill="white"/>
<path d="M5.32227 11.5425C5.99536 11.5425 6.54102 10.9968 6.54102 10.3237C6.54102 9.65063 5.99536 9.10498 5.32227 9.10498C4.64917 9.10498 4.10352 9.65063 4.10352 10.3237C4.10352 10.9968 4.64917 11.5425 5.32227 11.5425Z" fill="white"/>
<path d="M9.07227 11.5426C9.74536 11.5426 10.291 10.9969 10.291 10.3239C10.291 9.65076 9.74536 9.1051 9.07227 9.1051C8.39917 9.1051 7.85352 9.65076 7.85352 10.3239C7.85352 10.9969 8.39917 11.5426 9.07227 11.5426Z" fill="white"/>
<path d="M12.8203 11.5425C13.4934 11.5425 14.0391 10.9968 14.0391 10.3237C14.0391 9.65063 13.4934 9.10498 12.8203 9.10498C12.1472 9.10498 11.6016 9.65063 11.6016 10.3237C11.6016 10.9968 12.1472 11.5425 12.8203 11.5425Z" fill="white"/>
<path d="M59.1719 12.9302H1.04688V14.8052H59.1719V12.9302Z" fill="white"/>
<rect x="8" y="39" width="11" height="8" rx="1" stroke="white" stroke-width="2"/>
<rect x="25" y="39" width="11" height="8" rx="1" stroke="white" stroke-width="2"/>
<rect x="42" y="39" width="11" height="8" rx="1" stroke="white" stroke-width="2"/>
<rect x="25" y="21" width="11" height="8" rx="1" stroke="white" stroke-width="2"/>
<path d="M30.5 29.5V38.5" stroke="white" stroke-width="2"/>
<path d="M26 43H18" stroke="white" stroke-width="2"/>
<path d="M43 43H35" stroke="white" stroke-width="2"/>
</g>
<defs>
<clipPath id="clip0_286_11207">
<rect width="60" height="51.6375" fill="white" transform="translate(0.109375 4.62402)"/>
</clipPath>
</defs>
</svg>
