<svg version="1.1" xmlns="http://www.w3.org/2000/svg" xmlns:xlink="http://www.w3.org/1999/xlink" width="52" height="57" viewBox="0,0,233.53906,256"><g fill="currentColor" fill-rule="nonzero" stroke="none" stroke-width="1" stroke-linecap="butt" stroke-linejoin="miter" stroke-miterlimit="10" stroke-dasharray="" stroke-dashoffset="0" font-family="none" font-weight="none" font-size="none" text-anchor="none" style="mix-blend-mode: normal"><g transform="translate(-0.00167,0.57562) scale(4.49123,4.49123)"><path d="M43.3195,26.0494h-6.4224c-0.1094,0 -0.2144,-0.0434 -0.2918,-0.1208c-0.0774,-0.0775 -0.1209,-0.1825 -0.1209,-0.2919v-2.1711c0,-0.1095 0.0435,-0.2144 0.1209,-0.2918c0.0774,-0.0775 0.1824,-0.1209 0.2918,-0.1209h6.3894c0.1095,0 0.2145,0.0434 0.2919,0.1209c0.0774,0.0774 0.1208,0.1823 0.1208,0.2918v2.1711c0.0004,0.104 -0.0385,0.2042 -0.1089,0.2808c-0.0704,0.0765 -0.1671,0.1236 -0.2708,0.1319zM37.3429,25.2239h5.5639v-1.3455h-5.5639z" fill="#fafafa"></path><path d="M43.3195,29.6407h-6.4224c-0.1094,0 -0.2144,-0.0435 -0.2918,-0.1209c-0.0774,-0.0774 -0.1209,-0.1824 -0.1209,-0.2919v-1.9151c0.0021,-0.1088 0.0463,-0.2126 0.1232,-0.2895c0.077,-0.077 0.1807,-0.1212 0.2895,-0.1233h6.3894c0.1095,0 0.2145,0.0435 0.2919,0.1209c0.0774,0.0774 0.1208,0.1824 0.1208,0.2919v1.9151c0.0004,0.104 -0.0385,0.2043 -0.1089,0.2808c-0.0704,0.0765 -0.1671,0.1237 -0.2708,0.132zM37.3429,28.8152h5.5639v-1.0897h-5.5639z" fill="currentColor"></path><path d="M42.2698,33.2315h-4.2926c-0.1095,0 -0.2144,-0.0435 -0.2918,-0.1209c-0.0775,-0.0774 -0.1209,-0.1824 -0.1209,-0.2918v-1.9152c0.0021,-0.1088 0.0462,-0.2126 0.1232,-0.2895c0.0769,-0.077 0.1807,-0.1211 0.2895,-0.1233h4.2926c0.1095,0 0.2145,0.0435 0.2919,0.1209c0.0774,0.0774 0.1209,0.1824 0.1209,0.2919v1.9152c0,0.1094 -0.0435,0.2144 -0.1209,0.2918c-0.0774,0.0774 -0.1824,0.1209 -0.2919,0.1209zM38.39,32.406h3.4588v-1.0897h-3.4671z" fill="#fafafa"></path><path d="M35.9619,20.5105c-0.0711,0.0117 -0.1436,0.0117 -0.2146,0c-2.1659,-0.9179 -3.9598,-2.5381 -5.0928,-4.5996c-1.133,-2.0615 -1.5391,-4.4444 -1.1531,-6.76481c0.3861,-2.32045 1.542,-4.44343 3.2815,-6.02702c1.7394,-1.5836 3.9613,-2.53564 6.3077,-2.70281c2.3464,-0.16716 4.6808,0.46029 6.6272,1.7813c1.9464,1.321 3.3915,3.25868 4.1026,5.50096c0.7112,2.24228 0.6469,4.65868 -0.1824,6.85998c-0.8293,2.2013 -2.3754,4.0594 -4.3892,5.2751l-0.2972,-0.4375l-0.3797,-0.3797c0.0375,-0.0375 0.079,-0.0707 0.1238,-0.0991c1.8011,-1.089 3.1835,-2.7523 3.9248,-4.7222c0.7412,-1.97 0.7982,-4.132 0.1618,-6.13822c-0.6364,-2.00625 -1.9293,-3.74006 -3.6705,-4.92247c-1.7413,-1.18241 -3.8297,-1.74465 -5.9292,-1.59628c-2.0996,0.14837 -4.0882,0.99871 -5.6458,2.41425c-1.5577,1.41553 -2.5939,3.31395 -2.9418,5.38976c-0.348,2.07576 0.0125,4.20836 1.0234,6.05446c1.0109,1.8461 2.6135,3.2984 4.5499,4.1233c0.1145,0.0477 0.2089,0.1336 0.2672,0.2431c0.0583,0.1095 0.0769,0.2358 0.0526,0.3574c-0.0244,0.1217 -0.0901,0.2311 -0.186,0.3098c-0.0959,0.0786 -0.2162,0.1216 -0.3402,0.1216z" fill="#ffffff"></path><path d="M43.8969,21.6084h-2.8727c-0.0725,0.0001 -0.1442,-0.0145 -0.2109,-0.0429c-0.0667,-0.0284 -0.1269,-0.0699 -0.1771,-0.1222c-0.0505,-0.0507 -0.0898,-0.1114 -0.1154,-0.1783c-0.0256,-0.0668 -0.0369,-0.1383 -0.0332,-0.2097l0.0908,-3.5001c0.0024,-0.137 0.0588,-0.2676 0.1569,-0.3633l3.2112,-3.2112c0.0653,-0.0631 0.1172,-0.1388 0.1527,-0.2225c0.0354,-0.0837 0.0537,-0.1736 0.0536,-0.2645c-0.0013,-0.1857 -0.0754,-0.3636 -0.2063,-0.4953c-0.1312,-0.1286 -0.3075,-0.2006 -0.4912,-0.2006c-0.1837,0 -0.36,0.072 -0.4912,0.2006l-2.6333,2.6251c-0.0499,0.0499 -0.109,0.0895 -0.1742,0.1165c-0.0652,0.0271 -0.135,0.041 -0.2055,0.041c-0.0706,0 -0.1404,-0.0139 -0.2056,-0.041c-0.0651,-0.027 -0.1244,-0.0666 -0.1742,-0.1165l-2.6746,-2.6499c-0.1227,-0.1161 -0.2851,-0.1808 -0.454,-0.1808c-0.1689,0 -0.3314,0.0647 -0.4541,0.1808c-0.0589,0.0584 -0.1056,0.1278 -0.1375,0.2043c-0.0319,0.0765 -0.0484,0.1586 -0.0484,0.2415c0,0.0829 0.0165,0.165 0.0484,0.2415c0.0319,0.0765 0.0786,0.1459 0.1375,0.2043l3.236,3.2277c0.0998,0.1012 0.1561,0.2375 0.1569,0.3797v3.5909c0,0.1424 -0.0566,0.2788 -0.1572,0.3794c-0.1006,0.1007 -0.2371,0.1572 -0.3794,0.1572h-2.4765c-0.0734,0.0011 -0.1462,-0.0138 -0.2132,-0.0437c-0.067,-0.03 -0.1267,-0.0742 -0.1748,-0.1297c-0.0522,-0.0526 -0.0918,-0.1163 -0.1161,-0.1863c-0.0243,-0.07 -0.0326,-0.1445 -0.0242,-0.2181c-0.0398,-0.2626 -0.1577,-0.5072 -0.3385,-0.7017c-0.0608,-0.1108 -0.0805,-0.2394 -0.0558,-0.3632c0.0248,-0.1239 0.0924,-0.235 0.191,-0.3139c0.0986,-0.0789 0.2219,-0.1205 0.3482,-0.1175c0.1263,0.0031 0.2474,0.0506 0.3421,0.1342c0.2039,0.247 0.3657,0.5259 0.4788,0.8255h1.4776v-2.7819l-3.0378,-3.0709c-0.159,-0.1587 -0.2851,-0.3472 -0.3712,-0.5547c-0.0861,-0.2076 -0.1304,-0.43 -0.1304,-0.6547c0,-0.2246 0.0443,-0.4471 0.1304,-0.6546c0.0861,-0.2075 0.2122,-0.396 0.3712,-0.5547c0.3243,-0.3108 0.7561,-0.4843 1.2052,-0.4843c0.4492,0 0.881,0.1735 1.2053,0.4843l2.2783,2.2783l2.2537,-2.2453c0.3343,-0.317 0.7775,-0.4937 1.2382,-0.4937c0.4607,0 0.9039,0.1767 1.2383,0.4937c0.1627,0.1625 0.2918,0.3555 0.3799,0.568c0.0881,0.2125 0.1334,0.4402 0.1334,0.6702c0,0.23 -0.0453,0.4578 -0.1334,0.6703c-0.0881,0.2124 -0.2172,0.4054 -0.3799,0.568l-3.0544,3.0543l-0.066,2.7324h1.7748v-0.1816c0.0004,-0.0803 0.0184,-0.1596 0.0526,-0.2323c0.0342,-0.0727 0.0839,-0.1371 0.1455,-0.1887c0.3608,-0.2976 0.7053,-0.6145 1.0319,-0.9493c0.0492,-0.0509 0.1083,-0.0914 0.1735,-0.1191c0.0652,-0.0276 0.1354,-0.0419 0.2062,-0.0419c0.0709,0 0.141,0.0143 0.2062,0.0419c0.0653,0.0277 0.1243,0.0682 0.1735,0.1191c0.0507,0.0485 0.0911,0.1069 0.1186,0.1714c0.0276,0.0646 0.0418,0.134 0.0418,0.2042c0,0.0702 -0.0142,0.1397 -0.0418,0.2042c-0.0275,0.0646 -0.0679,0.1229 -0.1186,0.1714c-0.3962,0.4045 -0.7182,0.6934 -0.9163,0.8668v0.4705c0.0069,0.1397 -0.041,0.2765 -0.1335,0.3813c-0.0926,0.1049 -0.2223,0.1695 -0.3618,0.1801z" fill="#ffffff"></path><path d="M51.6727,55.1321c0,0.1971 -0.0783,0.386 -0.2176,0.5253c-0.1393,0.1394 -0.3283,0.2177 -0.5253,0.2177c-0.1971,0 -0.386,-0.0783 -0.5254,-0.2177c-0.1393,-0.1393 -0.2176,-0.3282 -0.2176,-0.5253l-1.3373,-8.5604c-0.1073,-0.3798 -1.0649,-3.6983 -2.9305,-4.4907l-11.4992,-5.4236l-6.0757,12.1514c-0.0625,0.1238 -0.158,0.2279 -0.2761,0.3007c-0.118,0.0729 -0.2539,0.1117 -0.3926,0.112h-3.368c-0.1379,0.001 -0.2732,-0.0373 -0.3902,-0.1104c-0.1169,-0.0731 -0.2106,-0.1779 -0.2702,-0.3023l-6.1252,-12.1597l-10.42609,4.7549l-0.18161,0.0578c-0.04128,0 -5.0438,1.2878 -5.10984,14.1491c0,0.197 -0.07828,0.386 -0.21761,0.5253c-0.13933,0.1394 -0.3283,0.2177 -0.52535,0.2177c-0.19704,0 -0.38601,-0.0783 -0.52534,-0.2177c-0.13933,-0.1393 -0.2176,-0.3283 -0.2176,-0.5253c0.06604,-13.4226 5.21717,-15.346 6.24904,-15.5937l10.9874,-5.0191c0.1741,-0.0818 0.3736,-0.0913 0.5546,-0.0263c0.1811,0.065 0.329,0.1992 0.4112,0.3731l6.2408,12.3825h2.4765l6.1995,-12.3825c0.087,-0.1736 0.2386,-0.3063 0.4222,-0.3695c0.1836,-0.0633 0.3847,-0.0522 0.5602,0.031l12.1266,5.7207c2.6416,1.1392 3.7312,5.3658 3.7725,5.5474l1.3621,8.7503c0.0013,0.036 -0.0014,0.072 -0.0083,0.1073z" fill="#ffffff"></path><path d="M35.1191,31.1098c-0.0033,0.0971 -0.0261,0.1925 -0.0673,0.2805c-0.0411,0.0879 -0.0997,0.1666 -0.1721,0.2313c-1.5709,1.4482 -3.4715,2.4911 -5.5369,3.038c-2.0654,0.547 -4.2331,0.5814 -6.3148,0.1005c-2.0817,-0.481 -4.0145,-1.463 -5.6306,-2.8605c-1.6161,-1.3976 -2.8666,-3.1685 -3.6429,-5.1591c-0.7763,-1.9905 -1.055,-4.1404 -0.8118,-6.2631c0.2433,-2.1227 1.001,-4.1539 2.2074,-5.9173c1.2065,-1.7633 2.8251,-3.2055 4.7155,-4.2013c1.8903,-0.99581 3.9951,-1.51507 6.1317,-1.51272h0.743c0.097,0.00322 0.1924,0.02611 0.2804,0.06726c0.0879,0.04115 0.1667,0.0997 0.2314,0.17214c0.0676,0.07138 0.12,0.15573 0.154,0.24797c0.0341,0.09223 0.0491,0.19041 0.0441,0.2886c-0.0107,0.19784 -0.0991,0.38345 -0.246,0.51645c-0.1469,0.1329 -0.3403,0.2025 -0.5383,0.1935c-0.2146,0 -0.4457,0 -0.6686,0c-1.8945,-0.0018 -3.7607,0.4588 -5.4368,1.3418c-1.676,0.8831 -3.1112,2.1619 -4.1809,3.7254c-1.0698,1.5636 -1.7417,3.3646 -1.9574,5.2467c-0.2158,1.8821 0.0311,3.7885 0.7193,5.5535c0.6881,1.7651 1.7967,3.3355 3.2294,4.5749c1.4327,1.2395 3.1464,2.1105 4.9921,2.5374c1.8457,0.4269 3.7678,0.3968 5.5992,-0.0876c1.8315,-0.4844 3.5171,-1.4085 4.9104,-2.6921c0.0711,-0.067 0.1548,-0.1192 0.2463,-0.1535c0.0915,-0.0342 0.1889,-0.0499 0.2865,-0.046c0.0976,0.0038 0.1935,0.0271 0.2821,0.0684c0.0885,0.0414 0.1678,0.1 0.2334,0.1723c0.1335,0.1463 0.2046,0.3388 0.1982,0.5366z" fill="#fafafa"></path></g></g></svg>