<svg version="1.1" xmlns="http://www.w3.org/2000/svg" xmlns:xlink="http://www.w3.org/1999/xlink" width="48" height="60" viewBox="0,0,204.79688,256"><g fill="currentColor" fill-rule="nonzero" stroke="none" stroke-width="1" stroke-linecap="butt" stroke-linejoin="miter" stroke-miterlimit="10" stroke-dasharray="" stroke-dashoffset="0" font-family="none" font-weight="none" font-size="none" text-anchor="none" style="mix-blend-mode: normal"><g transform="translate(-0.00005,-0.00001) scale(4.26667,4.26667)"><path d="M36.7438,24.53c-0.221,-0.0007 -0.4355,-0.0745 -0.61,-0.21l-7.2,-5.79h-1.49c-0.2652,0 -0.5196,-0.1053 -0.7071,-0.2929c-0.1876,-0.1875 -0.2929,-0.4419 -0.2929,-0.7071c0,-0.2652 0.1053,-0.5196 0.2929,-0.7071c0.1875,-0.1875 0.4419,-0.2929 0.7071,-0.2929h1.84c0.2255,0.0013 0.4441,0.0788 0.62,0.22l4.91,4l-1,-3.05c-0.0449,-0.1483 -0.0547,-0.3049 -0.0287,-0.4577c0.0261,-0.1527 0.0872,-0.2973 0.1787,-0.4223c0.0911,-0.1247 0.2098,-0.2266 0.3469,-0.2978c0.137,-0.0711 0.2887,-0.1095 0.4431,-0.1122h3.55v-14.41h-25.42v2.42999c0,0.26522 -0.1054,0.51959 -0.2929,0.70713c-0.1875,0.18753 -0.4419,0.29287 -0.7071,0.29287c-0.2652,0 -0.5196,-0.10534 -0.7071,-0.29287c-0.1876,-0.18754 -0.2929,-0.44191 -0.2929,-0.70713v-3.42999c0,-0.26522 0.1053,-0.51956 0.2929,-0.70709c0.1875,-0.18754 0.4419,-0.29291 0.7071,-0.29291h27.39c0.2652,0 0.5196,0.10537 0.7071,0.29291c0.1875,0.18754 0.2929,0.44188 0.2929,0.70709v16.4c0,0.2652 -0.1054,0.5196 -0.2929,0.7071c-0.1875,0.1876 -0.4419,0.2929 -0.7071,0.2929h-3.18l1.56,4.89c0.0617,0.2015 0.0581,0.4173 -0.0101,0.6166c-0.0683,0.1993 -0.1977,0.372 -0.3699,0.4934c-0.1612,0.0916 -0.3447,0.1366 -0.53,0.13z" fill="currentColor"></path><path d="M6.70364,25c-0.19944,0.0005 -0.39447,-0.0587 -0.56001,-0.17c-0.17448,-0.1239 -0.30458,-0.3006 -0.37118,-0.504c-0.06661,-0.2034 -0.06619,-0.4228 0.00119,-0.626l1.13,-3.31h-2.18001c-0.26521,0 -0.51957,-0.1053 -0.7071,-0.2929c-0.18754,-0.1875 -0.2929,-0.4418 -0.2929,-0.7071v-11.84996c0,-0.26522 0.10536,-0.51959 0.2929,-0.70712c0.18753,-0.18754 0.44189,-0.29288 0.7071,-0.29288h19.60997c0.2652,0 0.5196,0.10534 0.7071,0.29288c0.1876,0.18753 0.2929,0.4419 0.2929,0.70712v11.75996c0,0.2652 -0.1053,0.5196 -0.2929,0.7071c-0.1875,0.1876 -0.4419,0.2929 -0.7071,0.2929h-11.76l-5.23997,4.45c-0.1716,0.1588 -0.3962,0.2479 -0.62999,0.25zM5.70364,18.42h2.57999c0.15695,0.0024 0.31117,0.0416 0.45015,0.1145c0.13898,0.073 0.25883,0.1776 0.34985,0.3055c0.09433,0.1257 0.15565,0.273 0.17836,0.4285c0.02271,0.1554 0.00609,0.3141 -0.04835,0.4615l-0.42,1.22l2.77996,-2.36c0.1786,-0.1527 0.4051,-0.2376 0.64,-0.24h11.14v-9.78997h-17.64996z" fill="#fafafa"></path><path d="M16.2832,41.4701c-1.6222,0.0019 -3.2086,-0.4773 -4.5584,-1.3771c-1.3498,-0.8998 -2.40232,-2.1798 -3.02449,-3.678c-0.62217,-1.4982 -0.78599,-3.1472 -0.47072,-4.7385c0.31527,-1.5913 1.09544,-3.0534 2.24181,-4.2012c1.1464,-1.1477 2.6075,-1.9297 4.1984,-2.2469c1.5909,-0.3172 3.2402,-0.1554 4.7391,0.4649c1.499,0.6203 2.7802,1.6714 3.6817,3.0201c0.9015,1.3487 1.3826,2.9344 1.3826,4.5567c0,2.173 -0.8625,4.2572 -2.3981,5.7947c-1.5357,1.5375 -3.6188,2.4026 -5.7919,2.4053zM16.2832,27.0501c-1.233,-0.002 -2.4389,0.3619 -3.4649,1.0457c-1.0261,0.6838 -1.8261,1.6567 -2.2989,2.7955c-0.4728,1.1388 -0.59699,2.3923 -0.3569,3.6017c0.24,1.2094 0.8336,2.3205 1.7055,3.1923c0.8719,0.8719 1.9829,1.4655 3.1923,1.7055c1.2094,0.2401 2.4629,0.1159 3.6017,-0.3569c1.1388,-0.4728 2.1117,-1.2728 2.7955,-2.2989c0.6838,-1.026 1.0477,-2.2319 1.0457,-3.4649c-0.0026,-1.6489 -0.6588,-3.2294 -1.8247,-4.3953c-1.1659,-1.1659 -2.7464,-1.8221 -4.3953,-1.8247z" fill="#ffffff"></path><path d="M31.7138,60h-29.83001c-0.25192,0.0008 -0.49487,-0.0935 -0.68027,-0.264c-0.1854,-0.1706 -0.29958,-0.4049 -0.31973,-0.656c0,-0.2 0,-0.38 0,-0.58c0.10408,-4.1518 1.82651,-8.0986 4.7998,-10.9983c2.9733,-2.8997 6.96201,-4.5227 11.11521,-4.5227c4.1531,0 8.1419,1.623 11.1152,4.5227c2.9733,2.8997 4.6957,6.8465 4.7998,10.9983c0,0.2 0,0.38 0,0.58c-0.0202,0.2511 -0.1344,0.4854 -0.3198,0.656c-0.1854,0.1705 -0.4283,0.2648 -0.6802,0.264zM2.88379,58h27.88001c-0.1366,-3.6057 -1.6651,-7.0183 -4.2644,-9.521c-2.5993,-2.5027 -6.0673,-3.9008 -9.6756,-3.9008c-3.6083,0 -7.07631,1.3981 -9.67564,3.9008c-2.59932,2.5027 -4.12777,5.9153 -4.26437,9.521z" fill="#ffffff"></path><path d="M34.6943,39.0499c-1.252,0 -2.4758,-0.3712 -3.5168,-1.0668c-1.041,-0.6955 -1.8523,-1.6842 -2.3314,-2.8408c-0.4791,-1.1567 -0.6045,-2.4294 -0.3602,-3.6573c0.2442,-1.2279 0.8471,-2.3558 1.7324,-3.2411c0.8852,-0.8853 2.0131,-1.4881 3.241,-1.7324c1.2279,-0.2442 2.5007,-0.1189 3.6574,0.3602c1.1566,0.4792 2.1452,1.2905 2.8408,2.3314c0.6955,1.041 1.0668,2.2648 1.0668,3.5168c-0.0027,1.678 -0.6704,3.2865 -1.857,4.473c-1.1865,1.1866 -2.795,1.8543 -4.473,1.857zM34.6943,28.3599c-0.8624,0 -1.7053,0.2557 -2.4223,0.7348c-0.717,0.4791 -1.2758,1.16 -1.6058,1.9567c-0.33,0.7967 -0.4164,1.6733 -0.2482,2.5191c0.1683,0.8457 0.5835,1.6226 1.1933,2.2324c0.6097,0.6097 1.3866,1.025 2.2324,1.1932c0.8457,0.1682 1.7224,0.0819 2.5191,-0.2481c0.7967,-0.33 1.4776,-0.8888 1.9567,-1.6058c0.4791,-0.717 0.7348,-1.56 0.7348,-2.4223c-0.0027,-1.1555 -0.4629,-2.263 -1.28,-3.0801c-0.8171,-0.8171 -1.9245,-1.2773 -3.08,-1.2799z" fill="#fafafa"></path><path d="M46.1341,52.8h-13.25c-0.2652,0 -0.5196,-0.1054 -0.7071,-0.2929c-0.1876,-0.1875 -0.2929,-0.4419 -0.2929,-0.7071c0,-0.2652 0.1053,-0.5196 0.2929,-0.7071c0.1875,-0.1875 0.4419,-0.2929 0.7071,-0.2929h12.23c-0.1505,-2.569 -1.2769,-4.9835 -3.1488,-6.7494c-1.8719,-1.7659 -4.3478,-2.7499 -6.9212,-2.7506c-1.5156,-0.0052 -3.0125,0.3343 -4.3776,0.9926c-1.3651,0.6583 -2.5628,1.6183 -3.5024,2.8074c-0.175,0.1592 -0.4008,0.2512 -0.6373,0.2596c-0.2364,0.0084 -0.4682,-0.0672 -0.6541,-0.2136c-0.1859,-0.1463 -0.3139,-0.3538 -0.3612,-0.5856c-0.0474,-0.2318 -0.011,-0.4729 0.1026,-0.6804c1.5585,-1.9549 3.686,-3.3771 6.0881,-4.0699c2.4022,-0.6927 4.9603,-0.6218 7.3205,0.203c2.3601,0.8247 4.4055,2.3626 5.8533,4.4008c1.4478,2.0382 2.2264,4.476 2.2281,6.9761c0.0152,0.1764 0.0152,0.3537 0,0.53c-0.0288,0.2388 -0.1428,0.4593 -0.3209,0.6209c-0.1782,0.1616 -0.4086,0.2536 -0.6491,0.2591z" fill="#fafafa"></path></g></g></svg>