<svg version="1.1" xmlns="http://www.w3.org/2000/svg" xmlns:xlink="http://www.w3.org/1999/xlink" width="59" height="39" viewBox="0,0,256,169.21875"><g fill="currentColor" fill-rule="nonzero" stroke="none" stroke-width="none" stroke-linecap="butt" stroke-linejoin="miter" stroke-miterlimit="10" stroke-dasharray="" stroke-dashoffset="0" font-family="none" font-weight="none" font-size="none" text-anchor="none" style="mix-blend-mode: normal"><g transform="translate(-1.26097,0.55509) scale(4.33898,4.33898)"><path d="M12.251,25.4549c-0.1034,-0.0005 -0.2044,-0.0318 -0.2899,-0.09l-2.69005,-1.8799c-0.1058,-0.0715 -0.1803,-0.1807 -0.20819,-0.3053c-0.02789,-0.1245 -0.00708,-0.255 0.05817,-0.3648l7.10997,-11.91c0.0396,-0.0725 0.0971,-0.1337 0.1672,-0.1775c0.0701,-0.0438 0.1503,-0.0687 0.2328,-0.0725c3.65,-0.21 10.9,-1.08997 11,-1.09997h0.16c0.9119,0.13517 1.7435,0.59717 2.34,1.29997c0.0807,0.1049 0.1165,0.2374 0.0996,0.3686c-0.0168,0.1312 -0.085,0.2504 -0.1896,0.3314c-0.1057,0.0782 -0.2376,0.1124 -0.368,0.0957c-0.1305,-0.0168 -0.2494,-0.0833 -0.332,-0.1857c-0.4232,-0.4808 -0.9985,-0.802 -1.6299,-0.91c-0.74,0.09 -7.1501,0.86 -10.7101,1.09l-6.7299,11.28l2.31,1.6201c0.0545,0.0361 0.1012,0.0829 0.1374,0.1374c0.0361,0.0545 0.061,0.1158 0.0732,0.1801c0.0121,0.0643 0.0112,0.1304 -0.0027,0.1944c-0.0138,0.064 -0.0403,0.1245 -0.0779,0.1781c-0.0499,0.0745 -0.119,0.1343 -0.1999,0.173c-0.0809,0.0387 -0.1708,0.0549 -0.2602,0.0469z" fill="currentColor" stroke="none" stroke-width="1"></path><path d="M12.2504,25.7049c-0.1544,-0.0006 -0.3048,-0.0496 -0.43,-0.14l-2.70002,-1.88c-0.15491,-0.1092 -0.26267,-0.2731 -0.30163,-0.4587c-0.03897,-0.1855 -0.00622,-0.3789 0.09164,-0.5413l7.10001,-11.91c0.0633,-0.105 0.1508,-0.1933 0.2552,-0.2577c0.1043,-0.0643 0.2226,-0.1028 0.3448,-0.1123c3.57,-0.2 10.66,-1.05997 11,-1.09997h0.2c0.9812,0.1396 1.8757,0.63849 2.51,1.39997c0.0658,0.0776 0.1151,0.1677 0.145,0.2649c0.0299,0.0972 0.0397,0.1995 0.0288,0.3006c-0.0109,0.1011 -0.0422,0.199 -0.092,0.2876c-0.0499,0.0886 -0.1173,0.1662 -0.1981,0.2279c-0.0808,0.0618 -0.1733,0.1065 -0.2719,0.1315c-0.0986,0.0249 -0.2012,0.0294 -0.3017,0.0134c-0.1004,-0.0159 -0.1965,-0.0522 -0.2825,-0.1065c-0.086,-0.0543 -0.16,-0.1256 -0.2176,-0.2094c-0.3792,-0.4194 -0.8847,-0.7037 -1.44,-0.81c-1.25,0.16 -7.13,0.85 -10.55,1.08l-6.55,11l2.13,1.48c0.1331,0.0906 0.2336,0.2217 0.2865,0.3738c0.0528,0.1521 0.0554,0.3172 0.0071,0.4709c-0.0482,0.1536 -0.1446,0.2877 -0.2749,0.3823c-0.1304,0.0946 -0.2877,0.1448 -0.4487,0.1431zM27.6704,9.80493c-0.3,0 -7.41,0.88997 -11,1.09997c-0.04,0.0045 -0.0786,0.0175 -0.1131,0.0382c-0.0345,0.0207 -0.0642,0.0486 -0.0869,0.0818l-7.10002,11.92c-0.03409,0.0532 -0.04585,0.1176 -0.03274,0.1794c0.0131,0.0618 0.05001,0.1159 0.10275,0.1506l2.69001,1.88c0.0269,0.0191 0.0573,0.0326 0.0895,0.0399c0.0321,0.0073 0.0654,0.0082 0.0979,0.0026c0.0325,-0.0056 0.0636,-0.0175 0.0915,-0.035c0.0279,-0.0176 0.0521,-0.0405 0.0711,-0.0675c0.019,-0.0269 0.0326,-0.0573 0.0399,-0.0894c0.0073,-0.0322 0.0081,-0.0655 0.0026,-0.098c-0.0056,-0.0325 -0.0175,-0.0636 -0.0351,-0.0915c-0.0176,-0.0279 -0.0405,-0.052 -0.0674,-0.0711l-2.5,-1.74l6.87,-11.61h0.14c3.42,-0.22 9.5,-0.94 10.69,-1.09h0.07c0.6917,0.1237 1.322,0.4758 1.79,1c0.0197,0.0263 0.0444,0.0484 0.0726,0.0652c0.0283,0.0167 0.0595,0.0277 0.092,0.0323c0.0325,0.0047 0.0656,0.0029 0.0975,-0.0053c0.0318,-0.0081 0.0616,-0.0225 0.0879,-0.0422c0.0263,-0.0196 0.0484,-0.0443 0.0651,-0.0726c0.0168,-0.0282 0.0277,-0.0595 0.0324,-0.092c0.0046,-0.0325 0.0028,-0.0656 -0.0053,-0.0974c-0.0082,-0.0318 -0.0225,-0.0617 -0.0422,-0.088c-0.5606,-0.652 -1.3388,-1.0784 -2.19,-1.19997z" fill="#ffffff" stroke="none" stroke-width="1"></path><path d="M53.5718,23.025c-0.0824,-0.0008 -0.1635,-0.0211 -0.2365,-0.0594c-0.073,-0.0382 -0.1359,-0.0933 -0.1835,-0.1606l-9.28,-13.92001c-0.0693,-0.10502 -0.0965,-0.23234 -0.0761,-0.35654c0.0204,-0.12419 0.0868,-0.23614 0.1861,-0.31347l9.28,-7.45999c0.0641,-0.05404 0.1415,-0.08997 0.2241,-0.10404c0.0827,-0.01407 0.1676,-0.00577 0.2459,0.02402c0.08,0.02589 0.1522,0.07154 0.2099,0.13272c0.0576,0.06118 0.099,0.1359 0.1201,0.21728l4.64,19.07003c0.0248,0.1101 0.0117,0.2254 -0.0374,0.327c-0.049,0.1017 -0.131,0.1838 -0.2326,0.233l-4.64,2.32c-0.0674,0.0364 -0.1435,0.0537 -0.22,0.05zM44.9618,8.71498l8.83,13.17002l3.89,-1.94l-4.36,-17.92003z" fill="#ffffff" stroke="none" stroke-width="1"></path><path d="M53.5716,23.275c-0.1226,0.0007 -0.2434,-0.0291 -0.3516,-0.0867c-0.1082,-0.0576 -0.2004,-0.1412 -0.2684,-0.2433l-9.28,-13.91998c-0.1065,-0.15461 -0.1502,-0.34392 -0.1224,-0.5296c0.0279,-0.18568 0.1252,-0.35385 0.2724,-0.4704l9.28,-7.45999c0.0979,-0.07964 0.2143,-0.13331 0.3384,-0.15604c0.1241,-0.02272 0.2519,-0.01377 0.3716,0.02603c0.1206,0.0383 0.2292,0.10728 0.3151,0.20019c0.0859,0.09291 0.1462,0.20657 0.1749,0.3298l4.64,19.06998c0.0391,0.1649 0.0219,0.3381 -0.0487,0.4921c-0.0707,0.154 -0.1908,0.28 -0.3413,0.3579l-4.64,2.31c-0.1044,0.0558 -0.2216,0.0834 -0.34,0.08zM53.5716,0.89502c-0.0587,0.00059 -0.1153,0.02183 -0.16,0.06l-9.28,7.46003c-0.04,0.04562 -0.0622,0.10425 -0.0622,0.16497c0,0.06073 0.0222,0.11939 0.0622,0.16501l9.28,13.91998c0.0357,0.0486 0.0865,0.0838 0.1445,0.1001c0.058,0.0163 0.1198,0.0128 0.1755,-0.0101l4.64,-2.32c0.0512,-0.0239 0.0922,-0.0651 0.116,-0.1163c0.0238,-0.0512 0.0288,-0.1092 0.014,-0.1637l-4.71,-19.06998c-0.0101,-0.04068 -0.03,-0.07828 -0.0579,-0.10962c-0.0278,-0.03134 -0.0629,-0.0555 -0.1021,-0.07037zM53.6616,22.205l-9,-13.53996l8.8001,-7.08002l4.5,18.48998zM45.2916,8.76504l8.54,12.79996l3.51,-1.76l-4.22,-17.32997z" fill="#ffffff" stroke="none" stroke-width="1"></path><path d="M6.01049,25.345c-0.13046,0.0008 -0.25607,-0.0495 -0.35,-0.14l-4.63999,-4.64c-0.06422,-0.0642 -0.11014,-0.1444 -0.13299,-0.2323c-0.02285,-0.0879 -0.02182,-0.1803 0.00299,-0.2677l5.79999,-19.06c0.02261,-0.08279 0.06701,-0.15801 0.12857,-0.2178c0.06155,-0.0598 0.13802,-0.10198 0.22143,-0.12219c0.08133,-0.0219 0.16683,-0.02331 0.24884,-0.00412c0.08202,0.0192 0.158,0.05838 0.22116,0.11411l8.12001,7.47c0.0826,0.07599 0.1366,0.17803 0.153,0.28906c0.0164,0.11103 -0.0059,0.22435 -0.063,0.32095l-9.28001,16.24c-0.03519,0.0678 -0.08636,0.126 -0.14908,0.1695c-0.06273,0.0436 -0.13511,0.0712 -0.21091,0.0805zM1.94048,20.065l4.00001,4l8.76001,-15.32999l-7.24,-6.65002z" fill="#ffffff" stroke="none" stroke-width="1"></path><path d="M6.01162,25.595c-0.19885,-0.0002 -0.38948,-0.0793 -0.53,-0.22l-4.64001,-4.64c-0.09693,-0.0938 -0.16599,-0.2125 -0.19952,-0.3432c-0.03354,-0.1306 -0.03025,-0.268 0.00952,-0.3968l5.80002,-19.07002c0.03766,-0.12033 0.10503,-0.22923 0.19592,-0.31662c0.09089,-0.08739 0.20235,-0.15047 0.32407,-0.18338c0.12294,-0.03547 0.253,-0.03843 0.37744,-0.00864c0.12444,0.02979 0.23903,0.09135 0.33258,0.17865l8.11997,7.46c0.1259,0.11581 0.2084,0.27118 0.2339,0.44033c0.0254,0.16916 -0.0077,0.34195 -0.0939,0.48969l-9.27999,16.23999c-0.05659,0.1002 -0.13578,0.1858 -0.23126,0.25c-0.09548,0.0643 -0.20459,0.1053 -0.31873,0.12zM7.17162,0.89498h-0.07001c-0.03992,0.01256 -0.07623,0.03458 -0.10583,0.06418c-0.0296,0.0296 -0.05159,0.06591 -0.06415,0.10584l-5.80002,19.06c-0.01357,0.0432 -0.01517,0.0893 -0.0046,0.1333c0.01056,0.044 0.0329,0.0844 0.0646,0.1167l4.64002,4.64c0.02351,0.0235 0.05165,0.0419 0.08264,0.0539c0.03098,0.0121 0.06413,0.0175 0.09735,0.0161c0.03884,-0.0038 0.07626,-0.0166 0.10925,-0.0375c0.03299,-0.0208 0.06064,-0.0491 0.08075,-0.0825l9.27998,-16.24c0.0284,-0.04961 0.0388,-0.10745 0.0297,-0.16385c-0.0091,-0.0564 -0.0372,-0.10797 -0.0797,-0.14615l-8.11999,-7.46002c-0.0385,-0.03532 -0.08786,-0.05648 -0.13999,-0.06zM5.96163,24.445l-4.31003,-4.31l5.64002,-18.54001l7.67998,7.06l-0.09,0.17999zM2.22161,19.995l3.63,3.63l8.48999,-14.87l-6.79998,-6.25z" fill="#ffffff" stroke="none" stroke-width="1"></path><path d="M46.4602,25.555c0.1476,0.4966 0.1555,1.0243 0.0229,1.5251c-0.1326,0.5008 -0.4007,0.9554 -0.7747,1.3139c-0.3739,0.3585 -0.8395,0.6071 -1.3454,0.7184c-0.506,0.1113 -1.0329,0.0811 -1.5228,-0.0874c0.0049,0.0231 0.0049,0.047 0,0.07c0.0654,0.4828 0.0081,0.9742 -0.1665,1.4289c-0.1746,0.4548 -0.461,0.8582 -0.8327,1.1731c-0.3716,0.3149 -0.8167,0.5311 -1.2939,0.6286c-0.4773,0.0976 -0.9714,0.0733 -1.4369,-0.0706c0.0401,0.4491 -0.036,0.9009 -0.2208,1.3121c-0.1849,0.4112 -0.4724,0.7679 -0.8349,1.036c-0.3624,0.2681 -0.7877,0.4385 -1.235,0.4949c-0.4473,0.0564 -0.9016,-0.0032 -1.3193,-0.173c0.051,0.3974 0.017,0.801 -0.0996,1.1843c-0.1167,0.3832 -0.3134,0.7373 -0.5772,1.0389c-0.2637,0.3015 -0.5885,0.5437 -0.9528,0.7103c-0.3642,0.1667 -0.7598,0.2541 -1.1604,0.2565c-0.5255,-0.0024 -1.0405,-0.1475 -1.49,-0.42l-3,-1.84c-0.1127,-0.0702 -0.1929,-0.1824 -0.2229,-0.3118c-0.03,-0.1294 -0.0074,-0.2654 0.0629,-0.3782c0.0703,-0.1127 0.1825,-0.1929 0.3119,-0.2229c0.1294,-0.03 0.2654,-0.0073 0.3781,0.0629l3,1.83c0.4028,0.2523 0.8887,0.3361 1.3527,0.2331c0.464,-0.1029 0.869,-0.3841 1.1273,-0.7831c0.2546,-0.3974 0.3468,-0.8774 0.2575,-1.3408c-0.0894,-0.4635 -0.3534,-0.8749 -0.7375,-1.1492l-5.53,-3.88c-0.1012,-0.0784 -0.1685,-0.1928 -0.1879,-0.3194c-0.0194,-0.1267 0.0106,-0.2559 0.0837,-0.3611c0.0731,-0.1052 0.1838,-0.1783 0.3093,-0.2043c0.1255,-0.0259 0.2561,-0.0027 0.3649,0.0648l6.78,4.73c0.3241,0.2254 0.7192,0.3247 1.1113,0.2793c0.3921,-0.0454 0.7541,-0.2324 1.018,-0.5258c0.264,-0.2935 0.4118,-0.6732 0.4156,-1.0678c0.0038,-0.3947 -0.1366,-0.7772 -0.3949,-1.0757l-7.06,-5.22c-0.1061,-0.0795 -0.1762,-0.198 -0.195,-0.3293c-0.0187,-0.1312 0.0155,-0.2646 0.095,-0.3707c0.0797,-0.1054 0.1972,-0.1759 0.3278,-0.1964c0.1306,-0.0205 0.264,0.0105 0.3722,0.0864l6.79,5c0.1225,0.0892 0.2363,0.1896 0.34,0.3l0.44,0.33c0.3958,0.2957 0.8917,0.4246 1.3814,0.3592c0.4897,-0.0654 0.9343,-0.32 1.2386,-0.7092c0.1613,-0.201 0.2801,-0.4327 0.349,-0.681c0.0689,-0.2483 0.0866,-0.508 0.052,-0.7634c-0.0346,-0.2554 -0.1208,-0.501 -0.2533,-0.722c-0.1326,-0.221 -0.3087,-0.4128 -0.5177,-0.5636l-8.29,-6.08c-0.0532,-0.0387 -0.0982,-0.0875 -0.1325,-0.1437c-0.0343,-0.0561 -0.0572,-0.1185 -0.0675,-0.1835c-0.0102,-0.065 -0.0075,-0.1314 0.008,-0.1953c0.0154,-0.064 0.0433,-0.1243 0.082,-0.1775c0.0388,-0.0532 0.0876,-0.0982 0.1438,-0.1325c0.0561,-0.0343 0.1185,-0.0572 0.1835,-0.0674c0.065,-0.0102 0.1313,-0.0076 0.1953,0.0079c0.064,0.0154 0.1242,0.0433 0.1774,0.082l9.35,6.77c0.3867,0.2578 0.8568,0.3588 1.3152,0.2826c0.4583,-0.0762 0.8705,-0.3239 1.153,-0.6929c0.2824,-0.3689 0.4139,-0.8315 0.3679,-1.2939c-0.0461,-0.4623 -0.2664,-0.8898 -0.6161,-1.1958" fill="#ffffff" stroke="none" stroke-width="1"></path><path d="M32.7214,38.3451c-0.5721,-0.0009 -1.1328,-0.1601 -1.62,-0.46l-3,-1.83c-0.158,-0.1063 -0.2703,-0.2681 -0.3148,-0.4532c-0.0444,-0.1852 -0.0177,-0.3804 0.0748,-0.5468c0.05,-0.0836 0.1166,-0.1561 0.1957,-0.2128c0.0792,-0.0568 0.1691,-0.0967 0.2643,-0.1172c0.096,-0.0257 0.1964,-0.031 0.2946,-0.0155c0.0982,0.0155 0.192,0.0514 0.2754,0.1055l3,1.83c0.347,0.1986 0.7567,0.2573 1.1455,0.1642c0.3888,-0.0931 0.7274,-0.331 0.9468,-0.6652c0.2194,-0.3342 0.3031,-0.7395 0.2339,-1.1333c-0.0692,-0.3937 -0.286,-0.7463 -0.6062,-0.9857l-5.53,-3.89c-0.15,-0.1137 -0.2518,-0.2796 -0.2851,-0.4649c-0.0334,-0.1852 0.0042,-0.3762 0.1051,-0.5351c0.115,-0.1603 0.2866,-0.2711 0.48,-0.31c0.1983,-0.0311 0.4011,0.0116 0.57,0.12l6.78,4.74c0.2727,0.1706 0.5967,0.2398 0.9152,0.1955c0.3186,-0.0442 0.6114,-0.1992 0.8272,-0.4376c0.2158,-0.2385 0.3409,-0.5453 0.3532,-0.8667c0.0124,-0.3214 -0.0887,-0.6369 -0.2856,-0.8912l-7,-5.18c-0.1591,-0.1193 -0.2643,-0.297 -0.2924,-0.4939c-0.0281,-0.1969 0.0231,-0.397 0.1424,-0.5561c0.1152,-0.1488 0.2826,-0.2481 0.4684,-0.2778c0.1857,-0.0298 0.3758,0.0124 0.5316,0.1178l6.8,5c0.1304,0.1018 0.254,0.2121 0.37,0.33l0.41,0.29c0.2609,0.1943 0.5734,0.3072 0.8983,0.3244c0.3248,0.0173 0.6475,-0.0619 0.9275,-0.2276c0.28,-0.1656 0.5048,-0.4103 0.6461,-0.7033c0.1413,-0.293 0.1928,-0.6213 0.1481,-0.9435c-0.0297,-0.2199 -0.1035,-0.4315 -0.2169,-0.6223c-0.1134,-0.1907 -0.2641,-0.3566 -0.4431,-0.4877l-8.35,-6.07c-0.1579,-0.1199 -0.265,-0.2948 -0.3,-0.49c-0.0288,-0.1978 0.0215,-0.399 0.14,-0.56c0.1178,-0.1602 0.2937,-0.268 0.49,-0.3c0.0964,-0.0146 0.1947,-0.0097 0.2892,0.0144c0.0944,0.024 0.1832,0.0667 0.2608,0.1256l9.35,6.76c0.3302,0.2546 0.748,0.3676 1.1616,0.3142c0.4135,-0.0535 0.7888,-0.269 1.0434,-0.5992c0.2546,-0.3302 0.3677,-0.748 0.3142,-1.1615c-0.0534,-0.4135 -0.269,-0.7889 -0.5992,-1.0435l0.31,-0.39c0.4363,0.3342 0.722,0.828 0.7942,1.3728c0.0722,0.5448 -0.075,1.0959 -0.4092,1.5322c-0.3341,0.4363 -0.8279,0.7219 -1.3727,0.7941c-0.5448,0.0722 -1.096,-0.0749 -1.5323,-0.4091l-9.35,-6.77c-0.0608,-0.025 -0.1291,-0.025 -0.19,0c-0.0484,0.0088 -0.0932,0.0317 -0.1287,0.0658c-0.0355,0.0341 -0.0601,0.0779 -0.0708,0.126c-0.0107,0.048 -0.0069,0.0982 0.0108,0.1441c0.0177,0.046 0.0486,0.0857 0.0887,0.1141l8.34,6.06c0.2366,0.1715 0.4358,0.3894 0.5854,0.6404c0.1496,0.251 0.2464,0.5299 0.2846,0.8196c0.0409,0.288 0.022,0.5814 -0.0554,0.8618c-0.0774,0.2804 -0.2117,0.5419 -0.3946,0.7682c-0.3493,0.4449 -0.8593,0.735 -1.4203,0.8079c-0.5609,0.0729 -1.1281,-0.0771 -1.5797,-0.4179l-0.44,-0.33c-0.108,-0.1059 -0.2214,-0.206 -0.34,-0.3l-6.79,-5c-0.053,-0.0398 -0.1197,-0.0569 -0.1853,-0.0475c-0.0657,0.0094 -0.1249,0.0445 -0.1647,0.0975c-0.0398,0.0531 -0.0568,0.1197 -0.0475,0.1854c0.0094,0.0656 0.0445,0.1248 0.0975,0.1646l7.06,5.23c0.3074,0.3393 0.4795,0.7796 0.4839,1.2374c0.0044,0.4578 -0.1593,0.9013 -0.4601,1.2465c-0.3008,0.3451 -0.7177,0.5679 -1.1718,0.6262c-0.4541,0.0583 -0.9138,-0.052 -1.292,-0.3101l-6.73,-4.82c-0.061,-0.024 -0.1289,-0.024 -0.19,0c-0.0644,0.0172 -0.1209,0.056 -0.16,0.11c-0.0189,0.0261 -0.0324,0.0557 -0.0396,0.0871c-0.0073,0.0314 -0.0081,0.0639 -0.0025,0.0956c0.0056,0.0318 0.0175,0.062 0.0351,0.0891c0.0175,0.027 0.0403,0.0502 0.067,0.0682l5.53,3.89c0.4412,0.3086 0.7448,0.7768 0.8465,1.3055c0.1016,0.5287 -0.0068,1.0762 -0.3021,1.5263c-0.2953,0.4501 -0.7544,0.7675 -1.2798,0.8848c-0.5254,0.1173 -1.0759,0.0252 -1.5346,-0.2566l-3,-1.84c-0.0618,-0.0192 -0.1281,-0.0192 -0.19,0c-0.0663,0.0189 -0.1232,0.0617 -0.16,0.12c-0.0312,0.0565 -0.0403,0.1226 -0.0256,0.1854c0.0148,0.0629 0.0525,0.118 0.1056,0.1546l3,1.83c0.4071,0.2567 0.8788,0.392 1.36,0.39c0.3651,-0.0026 0.7255,-0.0828 1.0573,-0.2351c0.3318,-0.1522 0.6276,-0.3732 0.8677,-0.6482c0.24,-0.2751 0.419,-0.598 0.525,-0.9473c0.1061,-0.3494 0.1367,-0.7173 0.09,-1.0794l-0.05,-0.43l0.4,0.16c0.4917,0.2023 1.0371,0.2334 1.5485,0.0883c0.5115,-0.1451 0.9593,-0.458 1.2715,-0.8883c0.3372,-0.4617 0.4937,-1.0308 0.44,-1.6v-0.38l0.36,0.11c0.4256,0.1319 0.8776,0.1543 1.3142,0.0653c0.4366,-0.0891 0.8437,-0.2868 1.1836,-0.5749c0.3399,-0.2881 0.6017,-0.6572 0.7611,-1.0733c0.1595,-0.4161 0.2115,-0.8656 0.1511,-1.3071l-0.05,-0.4l0.37,0.06c0.4463,0.1535 0.9263,0.1811 1.3873,0.0798c0.4609,-0.1012 0.8851,-0.3275 1.226,-0.6539c0.3408,-0.3264 0.5852,-0.7404 0.7064,-1.1965c0.1211,-0.4562 0.1143,-0.9369 -0.0197,-1.3894l0.48,-0.14c0.1515,0.5094 0.168,1.0493 0.0482,1.567c-0.1198,0.5177 -0.3719,0.9954 -0.7317,1.3864c-0.3598,0.3911 -0.815,0.6821 -1.3209,0.8445c-0.506,0.1624 -1.0454,0.1907 -1.5656,0.0821c0.0175,0.4746 -0.0723,0.9471 -0.2626,1.3822c-0.1903,0.4352 -0.4763,0.8218 -0.8366,1.1312c-0.3604,0.3094 -0.7858,0.5336 -1.2447,0.656c-0.4589,0.1223 -0.9395,0.1396 -1.4061,0.0506c-0.023,0.574 -0.2105,1.1294 -0.54,1.6c-0.3456,0.4633 -0.8206,0.8139 -1.3651,1.0079c-0.5445,0.1939 -1.1342,0.2225 -1.6949,0.0821c0.0028,0.5988 -0.1673,1.1856 -0.49,1.69c-0.2976,0.4087 -0.6916,0.7376 -1.1469,0.9574c-0.4554,0.2198 -0.9579,0.3237 -1.4631,0.3026z" fill="#ffffff" stroke="none" stroke-width="1"></path><path d="M50.4518,21.3451l-7.36,-11.33c-0.0801,-0.1105 -0.1972,-0.18856 -0.33,-0.22003c-0.0683,-0.01127 -0.1383,-0.00821 -0.2055,0.00901c-0.0671,0.01721 -0.1299,0.04818 -0.1845,0.09097c-1.1548,0.65725 -2.4612,1.00195 -3.79,1.00005l-6.16,-1.68004c-0.0586,-0.02448 -0.1214,-0.03708 -0.185,-0.03708c-0.0635,0 -0.1263,0.0126 -0.1849,0.03708l-7.4201,4.00004c-0.208,0.1111 -0.3858,0.2714 -0.5178,0.4668c-0.1321,0.1954 -0.2146,0.4201 -0.2402,0.6546c-0.0256,0.2344 0.0064,0.4716 0.0932,0.6909c0.0867,0.2194 0.2257,0.4142 0.4048,0.5677c3.11,2.67 7.43,0.36 8.64,-0.38l11.5401,9.36l0.3699,0.3l1.65,1.34c-0.0014,-0.2507 -0.0385,-0.4998 -0.1099,-0.74c0.1216,-0.0042 0.2381,-0.0501 0.3299,-0.13l3.58,-3.4c0.0786,-0.0766 0.1293,-0.1774 0.1438,-0.2862c0.0145,-0.1088 -0.008,-0.2193 -0.0638,-0.3138zM46.1018,24.6451c-0.1462,-0.2131 -0.3211,-0.4049 -0.5199,-0.57l-12.1801,-9.8701c-0.0888,-0.0759 -0.2032,-0.1153 -0.32,-0.1099c-0.0984,0.0032 -0.1946,0.0307 -0.2799,0.0799c-0.05,0 -4.7601,3.2101 -7.7401,0.6501c-0.0553,-0.0475 -0.098,-0.108 -0.1242,-0.1761c-0.0262,-0.0681 -0.035,-0.1416 -0.0258,-0.2139c0.0054,-0.0731 0.0293,-0.1437 0.0696,-0.2049c0.0402,-0.0613 0.0955,-0.1112 0.1604,-0.1451l7.25,-3.87l6,1.65h0.1301c1.3868,-0.0106 2.7536,-0.3318 4,-0.9401l6.8599,10.5501z" fill="#000000" stroke="#ffffff" stroke-width="0.5"></path><path d="M24.6103,37.9549h-0.07c-0.1894,-0.0086 -0.3753,-0.0546 -0.5469,-0.1352c-0.1716,-0.0807 -0.3256,-0.1944 -0.4531,-0.3347l-1.75,-1.8701c-0.2459,-0.2742 -0.3782,-0.6317 -0.37,-1c0.0064,-0.1898 0.0513,-0.3764 0.1321,-0.5483c0.0808,-0.1719 0.1958,-0.3256 0.3379,-0.4517l3.63,-3.31c0.1406,-0.1305 0.306,-0.2314 0.4863,-0.2967c0.1804,-0.0653 0.3721,-0.0936 0.5637,-0.0833c0.1898,0.0064 0.3764,0.0514 0.5483,0.1322c0.1719,0.0808 0.3256,0.1957 0.4517,0.3378l1.71,1.8701c0.1297,0.1413 0.2301,0.3069 0.2953,0.4873c0.0653,0.1804 0.0941,0.3719 0.0848,0.5635c-0.0093,0.1916 -0.0565,0.3795 -0.1389,0.5527c-0.0824,0.1732 -0.1984,0.3284 -0.3412,0.4564l-3.63,3.31c-0.2655,0.2148 -0.5987,0.3282 -0.94,0.32zM26.5403,30.8549c-0.1144,0.0018 -0.2243,0.0444 -0.31,0.12l-3.64,3.31c-0.0873,0.0849 -0.1407,0.1987 -0.15,0.32c-0.0031,0.1213 0.0397,0.2391 0.12,0.33l1.71,1.87c0.0392,0.0468 0.0882,0.0844 0.1434,0.1103c0.0553,0.0259 0.1155,0.0395 0.1766,0.0397c0.0604,0.0057 0.1214,-0.0021 0.1785,-0.0228c0.057,-0.0208 0.1088,-0.054 0.1515,-0.0972l3.63,-3.31c0.0882,-0.08 0.142,-0.1911 0.15,-0.31c0.0037,-0.0603 -0.005,-0.1207 -0.0257,-0.1775c-0.0206,-0.0567 -0.0527,-0.1086 -0.0943,-0.1525l-1.71,-1.88c-0.0387,-0.0441 -0.0863,-0.0795 -0.1398,-0.1036c-0.0535,-0.0242 -0.1116,-0.0366 -0.1702,-0.0364z" fill="#ffffff" stroke="none" stroke-width="1"></path><path d="M24.612,38.205h-0.08c-0.2233,-0.0091 -0.4425,-0.0624 -0.6451,-0.1568c-0.2025,-0.0944 -0.3843,-0.228 -0.5349,-0.3932l-1.71,-1.8699c-0.3033,-0.3437 -0.4579,-0.7936 -0.4298,-1.2511c0.0282,-0.4575 0.2367,-0.8851 0.5798,-1.189l3.63,-3.3099c0.3375,-0.3022 0.78,-0.4599 1.2325,-0.4393c0.4525,0.0205 0.8788,0.2177 1.1875,0.5492l1.7,1.8701c0.1533,0.1653 0.2722,0.3594 0.3497,0.5711c0.0775,0.2117 0.1122,0.4367 0.1019,0.6619c-0.0102,0.2252 -0.0651,0.4461 -0.1615,0.6499c-0.0965,0.2037 -0.2324,0.3863 -0.4001,0.537l-3.64,3.3301c-0.3219,0.2932 -0.7446,0.4508 -1.18,0.4399zM26.552,30.115c-0.3054,-0.0024 -0.6009,0.108 -0.83,0.31l-3.63,3.3101c-0.1178,0.1068 -0.2131,0.2362 -0.2801,0.3805c-0.0669,0.1442 -0.1043,0.3005 -0.1099,0.4595c-0.01,0.1584 0.0122,0.3172 0.0655,0.4668c0.0533,0.1496 0.1365,0.2868 0.2445,0.4032l1.7,1.8699c0.1069,0.1179 0.2362,0.2131 0.3805,0.2801c0.1443,0.067 0.3006,0.1044 0.4595,0.1099h0.06c0.2992,0.0013 0.5881,-0.1093 0.81,-0.31l3.63,-3.31c0.2373,-0.2174 0.3808,-0.5187 0.4,-0.84c0.012,-0.3208 -0.103,-0.6334 -0.32,-0.87l-1.7,-1.8699c-0.1068,-0.1179 -0.2362,-0.2131 -0.3805,-0.2801c-0.1443,-0.067 -0.3005,-0.1044 -0.4595,-0.11zM24.612,37.205c-0.1867,-0.011 -0.3622,-0.0933 -0.49,-0.2299l-1.7,-1.87c-0.1258,-0.1397 -0.1937,-0.3221 -0.19,-0.5101c0.0126,-0.1884 0.0988,-0.3644 0.24,-0.4899l3.63,-3.31c0.1305,-0.1214 0.3019,-0.1892 0.48,-0.19c0.0932,0.0021 0.1849,0.0236 0.2693,0.0633c0.0844,0.0396 0.1595,0.0963 0.2207,0.1666l1.7,1.87c0.0646,0.0677 0.1148,0.1479 0.1474,0.2355c0.0327,0.0877 0.0472,0.1811 0.0426,0.2745c-0.0089,0.1873 -0.0916,0.3635 -0.23,0.49l-3.63,3.3101c-0.1335,0.1228 -0.3085,0.1906 -0.49,0.1899zM26.542,30.8551v0.25c-0.0278,-0.001 -0.0555,0.0038 -0.0813,0.0141c-0.0258,0.0103 -0.0492,0.026 -0.0687,0.0459l-3.6,3.31c-0.0366,0.0387 -0.061,0.0874 -0.07,0.1399c-0.001,0.0278 0.0039,0.0555 0.0142,0.0814c0.0103,0.0258 0.0259,0.0492 0.0458,0.0687l1.7,1.8799c0.0195,0.0199 0.0429,0.0355 0.0687,0.0459c0.0258,0.0103 0.0535,0.0151 0.0813,0.0141c0.0272,0.0045 0.0551,0.0022 0.0812,-0.0065c0.0261,-0.0087 0.0497,-0.0236 0.0688,-0.0435l3.63,-3.31c0.0212,-0.0189 0.0384,-0.042 0.0504,-0.0678c0.0121,-0.0257 0.0187,-0.0537 0.0196,-0.0821c-0.0002,-0.0558 -0.0217,-0.1095 -0.06,-0.15l-1.7,-1.8701c-0.0387,-0.0366 -0.0874,-0.0609 -0.14,-0.0699z" fill="#ffffff" stroke="none" stroke-width="1"></path><path d="M20.041,36.0249c-0.2029,0.0016 -0.4039,-0.0395 -0.5899,-0.1204c-0.186,-0.081 -0.353,-0.2001 -0.4901,-0.3496l-1.71,-1.87c-0.1298,-0.1413 -0.2301,-0.307 -0.2954,-0.4874c-0.0652,-0.1803 -0.0941,-0.3719 -0.0848,-0.5635c0.0093,-0.1916 0.0566,-0.3794 0.139,-0.5527c0.0824,-0.1732 0.1984,-0.3283 0.3412,-0.4564l5.61,-5.12c0.2866,-0.2595 0.6645,-0.3947 1.0507,-0.376c0.3861,0.0188 0.7491,0.19 1.0093,0.476l1.7,1.87c0.2607,0.2853 0.3977,0.6624 0.3808,1.0486c-0.0169,0.3861 -0.1862,0.7499 -0.4708,1.0114l-5.61,5.11c-0.2666,0.2465 -0.617,0.3823 -0.98,0.38zM23.941,27.1249c-0.1144,0.0018 -0.2243,0.0443 -0.31,0.12l-5.61,5.1c-0.0873,0.0848 -0.1407,0.1986 -0.15,0.32c-0.0031,0.1212 0.0397,0.2391 0.12,0.33l1.71,1.87c0.0418,0.0423 0.0917,0.0759 0.1466,0.0989c0.0549,0.0229 0.1139,0.0347 0.1734,0.0347c0.0595,0 0.1184,-0.0118 0.1734,-0.0347c0.0549,-0.023 0.1047,-0.0566 0.1466,-0.0989l5.61,-5.11c0.0861,-0.0863 0.1344,-0.2032 0.1344,-0.325c0,-0.1219 -0.0483,-0.2388 -0.1344,-0.325l-1.7,-1.87c-0.0849,-0.0873 -0.1986,-0.1406 -0.32,-0.15z" fill="#ffffff" stroke="none" stroke-width="1"></path><path d="M20.0417,36.275c-0.2381,0.0006 -0.4738,-0.0479 -0.6924,-0.1425c-0.2185,-0.0946 -0.4152,-0.2334 -0.5776,-0.4075l-1.7,-1.88c-0.153,-0.1645 -0.2717,-0.3578 -0.3491,-0.5687c-0.0774,-0.2109 -0.1119,-0.435 -0.1017,-0.6594c0.0102,-0.2244 0.0651,-0.4445 0.1614,-0.6475c0.0963,-0.2029 0.2321,-0.3846 0.3994,-0.5344l5.61,-5.09c0.3358,-0.3015 0.7767,-0.459 1.2275,-0.4384c0.4509,0.0206 0.8756,0.2175 1.1825,0.5483l1.71,1.8701c0.3033,0.3376 0.4609,0.7814 0.4384,1.2347c-0.0224,0.4533 -0.2232,0.8793 -0.5584,1.1853l-5.6,5.11c-0.3207,0.2731 -0.7288,0.4221 -1.15,0.42zM23.9417,26.375c-0.3033,0.0028 -0.595,0.1166 -0.82,0.32l-5.6,5.11c-0.1187,0.1062 -0.2152,0.2351 -0.2836,0.379c-0.0684,0.1439 -0.1075,0.3 -0.1149,0.4592c-0.0075,0.1592 0.0168,0.3182 0.0715,0.4679c0.0547,0.1497 0.1387,0.287 0.247,0.4039l1.7,1.87c0.2214,0.2283 0.5214,0.3637 0.8392,0.3786c0.3177,0.0149 0.6291,-0.0919 0.8708,-0.2986l5.61,-5.11c0.1179,-0.1069 0.2131,-0.2363 0.2801,-0.3806c0.067,-0.1442 0.1043,-0.3005 0.1099,-0.4594c0.0158,-0.3196 -0.0957,-0.6324 -0.31,-0.8701l-1.75,-1.8699c-0.1061,-0.1188 -0.2353,-0.2146 -0.3798,-0.2817c-0.1444,-0.0671 -0.301,-0.1039 -0.4602,-0.1083zM20.0417,35.275c-0.1873,-0.009 -0.3634,-0.0917 -0.49,-0.23l-1.7,-1.8701c-0.0646,-0.0676 -0.1147,-0.1478 -0.1474,-0.2354c-0.0327,-0.0877 -0.0472,-0.1811 -0.0426,-0.2745c0.009,-0.1873 0.0916,-0.3635 0.23,-0.4901l5.61,-5.1099c0.1305,-0.1214 0.3018,-0.1892 0.48,-0.19c0.0951,0.0049 0.1882,0.0287 0.2741,0.0699c0.0858,0.0412 0.1626,0.099 0.2259,0.17l1.71,1.8701c0.1231,0.1407 0.1875,0.3232 0.18,0.51c-0.009,0.1873 -0.0916,0.3634 -0.23,0.49l-5.61,5.11c-0.1335,0.1218 -0.3094,0.1864 -0.49,0.18zM23.9417,27.125v0.22c-0.0528,0.0007 -0.1031,0.0223 -0.14,0.06l-5.61,5.11c-0.0405,0.0359 -0.0656,0.086 -0.07,0.14c0,0.0541 0.0176,0.1067 0.05,0.15l1.71,1.88c0.0369,0.0376 0.0873,0.0592 0.14,0.06c0.0576,0.0031 0.1144,-0.0147 0.16,-0.05l5.6,-5.11c0.0228,-0.0176 0.0411,-0.0404 0.0533,-0.0665c0.0122,-0.0261 0.0179,-0.0548 0.0167,-0.0835c-0.0137,-0.0338 -0.0341,-0.0644 -0.06,-0.09l-1.71,-1.87c-0.0387,-0.0367 -0.0874,-0.061 -0.14,-0.07z" fill="#ffffff" stroke="none" stroke-width="1"></path><path d="M16.4514,33.3451h-0.0701c-0.1898,-0.0064 -0.3764,-0.0514 -0.5483,-0.1322c-0.1719,-0.0808 -0.3256,-0.1957 -0.4517,-0.3378l-1.6999,-1.87c-0.1315,-0.1399 -0.2331,-0.3052 -0.2984,-0.4858c-0.0654,-0.1805 -0.0931,-0.3725 -0.0816,-0.5642c0.0086,-0.1894 0.0546,-0.3752 0.1352,-0.5469c0.0807,-0.1716 0.1944,-0.3256 0.3348,-0.4531l6,-5.46c0.2866,-0.2595 0.6644,-0.3947 1.0506,-0.3759c0.3862,0.0187 0.7492,0.1899 1.0094,0.4759l1.6999,1.87c0.1315,0.1399 0.2331,0.3052 0.2984,0.4858c0.0654,0.1805 0.0931,0.3725 0.0816,0.5642c-0.0086,0.1894 -0.0546,0.3753 -0.1352,0.5469c-0.0807,0.1716 -0.1944,0.3256 -0.3348,0.4531l-6,5.45c-0.2691,0.2489 -0.6234,0.3849 -0.9899,0.38zM20.7313,24.0951c-0.1145,0.0009 -0.2247,0.0436 -0.3099,0.12l-6,5.46c-0.0455,0.0381 -0.0824,0.0855 -0.1083,0.1389c-0.0258,0.0535 -0.0401,0.1118 -0.0417,0.1711c-0.0065,0.0605 0.001,0.1217 0.0218,0.1789c0.0208,0.0572 0.0544,0.1088 0.0982,0.1511l1.6999,1.88c0.0406,0.0444 0.0901,0.0798 0.1452,0.104c0.0551,0.0241 0.1147,0.0363 0.1748,0.036c0.0596,0.005 0.1196,-0.0021 0.1764,-0.021c0.0567,-0.0189 0.109,-0.0492 0.1537,-0.089l6,-5.46c0.0467,-0.0392 0.0843,-0.0882 0.1103,-0.1434c0.0259,-0.0553 0.0394,-0.1156 0.0397,-0.1766c0.0056,-0.0605 -0.0022,-0.1214 -0.0229,-0.1785c-0.0208,-0.0571 -0.0539,-0.1088 -0.0971,-0.1515l-1.7001,-1.87c-0.0456,-0.0419 -0.0993,-0.0741 -0.1577,-0.0947c-0.0584,-0.0206 -0.1204,-0.0292 -0.1823,-0.0253z" fill="#ffffff" stroke="none" stroke-width="1"></path><path d="M16.4513,33.6251h-0.0801c-0.2232,-0.0091 -0.4425,-0.0624 -0.645,-0.1568c-0.2026,-0.0944 -0.3844,-0.2281 -0.5349,-0.3932l-1.71,-1.8701c-0.1509,-0.1658 -0.2674,-0.3599 -0.3429,-0.571c-0.0755,-0.2111 -0.1085,-0.435 -0.0971,-0.6589c0.0201,-0.4535 0.2176,-0.8809 0.5499,-1.19l6,-5.45c0.1651,-0.1518 0.3586,-0.2694 0.5694,-0.346c0.2107,-0.0766 0.4345,-0.1108 0.6586,-0.1006c0.224,0.0102 0.4437,0.0647 0.6466,0.1602c0.2029,0.0955 0.3849,0.2302 0.5354,0.3964l1.7101,1.87c0.1513,0.1655 0.2681,0.3596 0.3436,0.5707c0.0755,0.2112 0.1083,0.4353 0.0963,0.6593c-0.0201,0.4534 -0.2176,0.8808 -0.5499,1.19l-6,5.45c-0.3139,0.2869 -0.7248,0.4441 -1.15,0.44zM20.7313,23.3451c-0.3006,0.0014 -0.5896,0.1156 -0.81,0.32l-6,5.4499c-0.1179,0.1069 -0.2131,0.2363 -0.2801,0.3806c-0.067,0.1443 -0.1044,0.3005 -0.11,0.4594c-0.01,0.1585 0.0123,0.3174 0.0656,0.4669c0.0533,0.1496 0.1364,0.2868 0.2444,0.4032l1.7101,1.87c0.1042,0.1184 0.2316,0.2142 0.3744,0.2813c0.1428,0.0671 0.2979,0.1041 0.4556,0.1087h0.06c0.3003,-0.0025 0.589,-0.1165 0.8099,-0.32l6,-5.45c0.1179,-0.1069 0.2132,-0.2363 0.2801,-0.3805c0.067,-0.1443 0.1044,-0.3006 0.11,-0.4595c0.01,-0.1585 -0.0123,-0.3174 -0.0656,-0.4669c-0.0533,-0.1496 -0.1364,-0.2867 -0.2444,-0.4031l-1.7101,-1.87c-0.1125,-0.124 -0.25,-0.2228 -0.4033,-0.29c-0.1534,-0.0672 -0.3192,-0.1013 -0.4866,-0.1zM16.4613,32.5951h-0.05c-0.0918,-0.0023 -0.1819,-0.024 -0.2647,-0.0637c-0.0827,-0.0396 -0.1561,-0.0963 -0.2153,-0.1664l-1.7101,-1.8699c-0.0632,-0.0682 -0.1119,-0.1487 -0.1428,-0.2364c-0.031,-0.0877 -0.0436,-0.1808 -0.0371,-0.2736c0.0021,-0.0932 0.0237,-0.1849 0.0633,-0.2693c0.0396,-0.0844 0.0964,-0.1596 0.1667,-0.2207l6,-5.45c0.1353,-0.1273 0.3142,-0.1981 0.5,-0.1981c0.1858,0 0.3646,0.0708 0.5,0.1981l1.71,1.87c0.0631,0.0703 0.1115,0.1525 0.1424,0.2418c0.0309,0.0893 0.0437,0.1839 0.0376,0.2782c-0.0034,0.0929 -0.0255,0.1842 -0.065,0.2685c-0.0395,0.0842 -0.0956,0.1595 -0.165,0.2214l-6,5.4501c-0.1177,0.1419 -0.2866,0.2318 -0.47,0.25zM20.7313,24.3451c-0.0528,0.0007 -0.1031,0.0223 -0.1401,0.06l-6,5.45c-0.0376,0.0369 -0.0592,0.0872 -0.06,0.14c-0.0044,0.0287 -0.0022,0.058 0.0065,0.0858c0.0086,0.0277 0.0236,0.0531 0.0436,0.0742l1.71,1.87c0.017,0.0202 0.0386,0.0361 0.0629,0.0465c0.0243,0.0104 0.0507,0.015 0.0771,0.0135c0.0233,0.0114 0.0489,0.0174 0.075,0.0174c0.026,0 0.0516,-0.006 0.075,-0.0174l6,-5.45c0.0198,-0.0195 0.0354,-0.0429 0.0458,-0.0687c0.0103,-0.0259 0.0151,-0.0535 0.0142,-0.0813c0.0044,-0.0272 0.0022,-0.0551 -0.0065,-0.0812c-0.0087,-0.0261 -0.0237,-0.0498 -0.0436,-0.0688l-1.7099,-1.87c-0.0137,-0.0305 -0.0344,-0.0573 -0.0605,-0.0782c-0.0261,-0.0209 -0.0568,-0.0352 -0.0895,-0.0418z" fill="#ffffff" stroke="none" stroke-width="1"></path><path d="M13.6714,29.845h-0.07c-0.3838,-0.0212 -0.7435,-0.1938 -1,-0.48l-1.71,-1.87c-0.2595,-0.2867 -0.3948,-0.6645 -0.376,-1.0507c0.0187,-0.3862 0.1899,-0.7492 0.476,-1.0093l3.6299,-3.31c0.14,-0.1315 0.3053,-0.2331 0.4858,-0.2984c0.1806,-0.0653 0.3726,-0.0931 0.5643,-0.0816c0.3837,0.0211 0.7434,0.1938 1,0.48l1.6999,1.87c0.2608,0.2853 0.3977,0.6624 0.3809,1.0486c-0.0169,0.3861 -0.1862,0.7498 -0.4708,1.0114l-3.6301,3.31c-0.2671,0.2456 -0.6171,0.3813 -0.9799,0.38zM15.5913,22.745c-0.1145,0.0009 -0.2247,0.0435 -0.3099,0.12l-3.6301,3.31c-0.0861,0.0862 -0.1344,0.2031 -0.1344,0.325c0,0.1218 0.0483,0.2387 0.1344,0.325l1.7001,1.87c0.0848,0.0873 0.1986,0.1406 0.32,0.15c0.0603,0.0037 0.1207,-0.0051 0.1775,-0.0257c0.0567,-0.0206 0.1086,-0.0527 0.1525,-0.0943l3.64,-3.31c0.0837,-0.0875 0.1304,-0.2039 0.1304,-0.325c0,-0.1211 -0.0467,-0.2375 -0.1304,-0.325l-1.71,-1.87c-0.0837,-0.0889 -0.1982,-0.1426 -0.32,-0.15z" fill="#ffffff" stroke="none" stroke-width="1"></path><path d="M13.6703,30.095h-0.08c-0.2256,-0.0096 -0.447,-0.0641 -0.6513,-0.1602c-0.2044,-0.0962 -0.3875,-0.2321 -0.5387,-0.3998l-1.7,-1.87c-0.1517,-0.1651 -0.2693,-0.3586 -0.346,-0.5693c-0.0766,-0.2107 -0.1108,-0.4346 -0.1006,-0.6586c0.0102,-0.224 0.0647,-0.4438 0.1602,-0.6466c0.0955,-0.2029 0.2302,-0.3849 0.3964,-0.5355l3.63,-3.31c0.1639,-0.1572 0.3589,-0.2785 0.5725,-0.356c0.2135,-0.0775 0.4409,-0.1095 0.6675,-0.094c0.2228,0.0095 0.4413,0.064 0.6424,0.1602c0.2011,0.0963 0.3805,0.2323 0.5276,0.3998l1.71,1.87c0.3015,0.3358 0.459,0.7767 0.4384,1.2276c-0.0206,0.4508 -0.2175,0.8755 -0.5484,1.1824l-3.66,3.31c-0.3042,0.2844 -0.7036,0.4449 -1.12,0.45zM15.5603,21.995c-0.2915,0.0021 -0.571,0.1167 -0.78,0.32l-3.64,3.31c-0.2345,0.2158 -0.3744,0.5153 -0.3894,0.8336c-0.0149,0.3183 0.0962,0.6296 0.3094,0.8664l1.71,1.87c0.2162,0.2391 0.5182,0.3829 0.84,0.4h0.06c0.3008,-0.0004 0.5901,-0.1148 0.81,-0.32l3.63,-3.31c0.2345,-0.2157 0.3744,-0.5152 0.3894,-0.8335c0.015,-0.3183 -0.0962,-0.6296 -0.3094,-0.8665l-1.71,-1.92c-0.216,-0.2321 -0.5134,-0.3718 -0.83,-0.39zM13.6703,29.095c-0.1873,-0.0089 -0.3634,-0.0916 -0.49,-0.23l-1.7,-1.87c-0.0665,-0.0651 -0.1194,-0.1429 -0.1554,-0.2288c-0.0361,-0.0858 -0.0547,-0.178 -0.0547,-0.2712c0,-0.0931 0.0186,-0.1853 0.0547,-0.2712c0.036,-0.0858 0.0889,-0.1636 0.1554,-0.2288l3.63,-3.31c0.1305,-0.1213 0.3018,-0.1891 0.48,-0.19c0.1935,0.007 0.3767,0.0896 0.51,0.23l1.7,1.87c0.0633,0.0682 0.1119,0.1486 0.1429,0.2364c0.031,0.0877 0.0436,0.1808 0.0371,0.2736c-0.0009,0.0935 -0.0219,0.1856 -0.0616,0.2701c-0.0397,0.0846 -0.0971,0.1596 -0.1684,0.2199l-3.63,3.31c-0.1202,0.1186 -0.2812,0.1866 -0.45,0.19zM15.5903,22.745v0.25c-0.0528,0.0008 -0.1031,0.0223 -0.14,0.06l-3.66,3.29c-0.022,0.0161 -0.0399,0.0371 -0.0521,0.0615c-0.0121,0.0244 -0.0183,0.0513 -0.0179,0.0785c0,0.0541 0.0176,0.1068 0.05,0.15l1.71,1.87c0.0359,0.0405 0.0861,0.0656 0.14,0.07c0.0543,0.0016 0.1075,-0.0161 0.15,-0.05l3.64,-3.31c0.0199,-0.0194 0.0355,-0.0428 0.0458,-0.0686c0.0104,-0.0259 0.0152,-0.0536 0.0142,-0.0814c0.0115,-0.0233 0.0175,-0.049 0.0175,-0.075c0,-0.026 -0.006,-0.0516 -0.0175,-0.075l-1.7,-1.87c-0.0189,-0.0212 -0.042,-0.0383 -0.0678,-0.0504c-0.0258,-0.012 -0.0538,-0.0187 -0.0822,-0.0196z" fill="#ffffff" stroke="none" stroke-width="1"></path></g></g></svg>