<svg version="1.1" xmlns="http://www.w3.org/2000/svg" xmlns:xlink="http://www.w3.org/1999/xlink" width="60" height="61" viewBox="0,0,251.79688,256"><g fill="currentColor" fill-rule="nonzero" stroke="none" stroke-width="1" stroke-linecap="butt" stroke-linejoin="miter" stroke-miterlimit="10" stroke-dasharray="" stroke-dashoffset="0" font-family="none" font-weight="none" font-size="none" text-anchor="none" style="mix-blend-mode: normal"><g transform="translate(-1.31877,0.53797) scale(4.19672,4.19672)"><path d="M32.8626,0.37183c-2.7139,0 -5.3669,0.80477 -7.6235,2.31257c-2.2566,1.5078 -4.0154,3.65091 -5.054,6.15829c-1.0386,2.50741 -1.3103,5.26641 -0.7808,7.92821c0.5295,2.6618 1.8364,5.1069 3.7554,7.0259c1.9191,1.9191 4.3641,3.226 7.0259,3.7555c2.6619,0.5294 5.4209,0.2577 7.9283,-0.7809c2.5073,-1.0386 4.6504,-2.7974 6.1582,-5.0539c1.5078,-2.2566 2.3127,-4.9097 2.3127,-7.6236c-0.0026,-3.6385 -1.4492,-7.1273 -4.022,-9.70013c-2.5728,-2.57283 -6.0616,-4.01937 -9.7002,-4.02194zM32.8626,26.1444c-2.3833,0 -4.7131,-0.7067 -6.6948,-2.0309c-1.9817,-1.3241 -3.5263,-3.2061 -4.4383,-5.4081c-0.9121,-2.2019 -1.1508,-4.6249 -0.6858,-6.9625c0.465,-2.33755 1.6126,-4.48474 3.2979,-6.17004c1.6853,-1.68529 3.8326,-2.833 6.1702,-3.29797c2.3375,-0.46497 4.7605,-0.22634 6.9624,0.68574c2.202,0.91208 4.084,2.45663 5.4081,4.43833c1.3241,1.9817 2.0309,4.31154 2.0309,6.69494c-0.0026,3.1952 -1.273,6.2588 -3.5324,8.5181c-2.2593,2.2594 -5.3229,3.5298 -8.5182,3.5324z"></path><path d="M12.5147,35.3378c-0.1178,0.0817 -0.2495,0.141 -0.3887,0.1749z" fill="currentColor"></path><path d="M23.5927,49.5847c-0.0819,-0.1402 -0.1912,-0.2624 -0.3215,-0.3592c-0.1302,-0.0969 -0.2787,-0.1664 -0.4365,-0.2045l-1.3703,-0.3401c-0.0391,-0.7814 -0.1998,-1.5519 -0.4762,-2.2838l1.137,-0.8649c0.1316,-0.0922 0.2426,-0.2106 0.3262,-0.3477c0.0836,-0.1371 0.138,-0.2901 0.1598,-0.4492c0.0379,-0.3168 -0.0454,-0.6362 -0.2333,-0.894l-1.9436,-2.6142c-0.0918,-0.1319 -0.21,-0.2433 -0.3472,-0.3269c-0.1372,-0.0837 -0.2904,-0.1379 -0.4497,-0.159c-0.3133,-0.0318 -0.6274,0.0511 -0.8843,0.2332l-1.1468,0.8649c-0.714,-0.515 -1.5043,-0.915 -2.3421,-1.1856v-1.4091c0.0002,-0.1637 -0.0328,-0.3258 -0.0968,-0.4764c-0.0641,-0.1507 -0.158,-0.2868 -0.276,-0.4003c-0.118,-0.1134 -0.2577,-0.2019 -0.4107,-0.26c-0.1531,-0.0581 -0.3163,-0.0847 -0.4798,-0.0781h-3.2848c-0.3205,0.0025 -0.627,0.1317 -0.85269,0.3592c-0.22571,0.2275 -0.35234,0.5351 -0.35233,0.8556v1.4091c-0.74496,0.2422 -1.45177,0.5891 -2.09916,1.0301l-1.11755,-0.9135c-0.25555,-0.1938 -0.57484,-0.2841 -0.89405,-0.2527c-0.15872,0.0133 -0.31307,0.059 -0.45347,0.1342c-0.1404,0.0752 -0.2639,0.1784 -0.36289,0.3032l-2.05052,2.5461c-0.20028,0.2521 -0.29323,0.573 -0.25867,0.8931c0.03456,0.3201 0.19385,0.6138 0.44332,0.8173l1.11755,0.9135c-0.27888,0.7252 -0.465,1.4828 -0.55394,2.2546l-1.38969,0.3013c-0.30719,0.0742 -0.57379,0.2643 -0.74405,0.5306c-0.17025,0.2662 -0.23097,0.588 -0.16946,0.898l0.70947,3.2167c0.02921,0.1549 0.09112,0.3017 0.18162,0.4308c0.0905,0.129 0.20747,0.2373 0.34314,0.3175c0.18329,0.1421 0.40955,0.2175 0.64143,0.2138c0.09203,-0.0076 0.1831,-0.0239 0.27208,-0.0486l1.38969,-0.3013c0.37893,0.6876 0.86435,1.3108 1.43827,1.8465l-0.64137,1.2828c-0.07833,0.1377 -0.12508,0.2911 -0.13684,0.4491c-0.01177,0.158 0.01174,0.3166 0.0688,0.4644c0.04643,0.1534 0.12504,0.2952 0.23062,0.4159c0.10558,0.1207 0.23569,0.2174 0.38163,0.2838l2.91545,1.4577c0.17054,0.0905 0.36089,0.1373 0.55395,0.1361c0.13263,0.0012 0.2644,-0.0219 0.38875,-0.068c0.15046,-0.0477 0.28901,-0.1271 0.40631,-0.2327c0.1173,-0.1055 0.2107,-0.235 0.2739,-0.3796l0.6414,-1.2731c0.4359,0.0802 0.8787,0.116 1.3217,0.1069c0.3251,-0.0007 0.6498,-0.0234 0.9718,-0.068l0.5928,1.3022c0.0651,0.1484 0.1599,0.2819 0.2786,0.3922c0.1186,0.1103 0.2587,0.1952 0.4114,0.2492c0.1323,0.0415 0.2696,0.0644 0.4082,0.068c0.1716,-0.0028 0.3407,-0.0426 0.4956,-0.1166l2.9932,-1.3702c0.2877,-0.1353 0.5109,-0.3779 0.6218,-0.6759c0.1108,-0.298 0.1004,-0.6275 -0.029,-0.9179l-0.5928,-1.3022c0.5717,-0.5186 1.0688,-1.1138 1.4771,-1.7687l1.3898,0.3401c0.1002,0.0096 0.2011,0.0096 0.3013,0c0.2143,0.004 0.4258,-0.0497 0.6122,-0.1555c0.1376,-0.0825 0.2569,-0.1924 0.3505,-0.3227c0.0936,-0.1304 0.1595,-0.2785 0.1937,-0.4353l0.826,-3.1681c0.0848,-0.2966 0.0606,-0.6137 -0.068,-0.8941zM21.7171,53.472l-1.0884,-0.2722l-1.1176,-0.3012c-0.1779,0.3645 -0.3928,0.7097 -0.6414,1.0301c-0.4643,0.6862 -1.0429,1.2877 -1.7104,1.7784l0.4567,1.0885l0.4762,1.0981l-3.0709,1.3217l-0.4859,-1.0301l-0.4762,-1.0496c-0.3896,0.0898 -0.7863,0.1451 -1.1856,0.1652c-0.1651,0.0097 -0.3306,0.0097 -0.4956,0c-0.2664,-0.0017 -0.5324,-0.0179 -0.7969,-0.0486c-0.3956,-0.0202 -0.7873,-0.0887 -1.1662,-0.2041l-0.54425,1.0302l-0.55394,1.0495l-2.98349,-1.5549l0.50537,-1.0204l0.52476,-1.0301c-0.30732,-0.2444 -0.59044,-0.5178 -0.84548,-0.8163c-0.30103,-0.2933 -0.56833,-0.6192 -0.7969,-0.9719c-0.22502,-0.3302 -0.41704,-0.6817 -0.57334,-1.0495l-1.15646,0.2041l-1.18565,0.2235l-0.64137,-3.275l1.11755,-0.2333l1.11761,-0.2332c-0.0055,-0.397 0.0238,-0.7937 0.08749,-1.1856c0.06702,-0.4252 0.16775,-0.8444 0.30127,-1.2537c0.11417,-0.3915 0.27056,-0.7695 0.46645,-1.1273l-0.89406,-0.7677l-0.91351,-0.758l2.16714,-2.5754l0.86493,0.7095l0.91351,0.7288c0.30126,-0.2235 0.6414,-0.4567 0.97182,-0.6608c0.36534,-0.2278 0.75693,-0.4105 1.16619,-0.5442c0.37246,-0.1607 0.75976,-0.2844 1.15646,-0.3693v-1.1565v-1.1856l3.3527,0.068v2.2741c0.3888,0.0907 0.7692,0.2142 1.1371,0.3693c0.4856,0.1633 0.9466,0.3922 1.3702,0.6803c0.3434,0.2086 0.6685,0.4459 0.9718,0.7094l1.9437,-1.3703l1.9436,2.7114l-0.9135,0.69l-0.9135,0.6997c0.1804,0.3558 0.3206,0.7307 0.4179,1.1176c0.1279,0.4079 0.2126,0.8281 0.2527,1.2536c0.0436,0.3222 0.0663,0.6468 0.068,0.9719c0.0149,0.0835 0.0149,0.169 0,0.2526l2.2837,0.6414z"></path><path d="M12.3762,44.7546c-0.9014,0 -1.7827,0.2673 -2.53221,0.7682c-0.74953,0.5008 -1.3337,1.2126 -1.67867,2.0454c-0.34497,0.8329 -0.43525,1.7493 -0.25939,2.6334c0.17587,0.8842 0.60998,1.6963 1.2474,2.3337c0.63742,0.6374 1.44957,1.0715 2.33367,1.2474c0.8841,0.1758 1.8005,0.0856 2.6334,-0.2594c0.8328,-0.3449 1.5447,-0.9291 2.0455,-1.6786c0.5008,-0.7496 0.7681,-1.6308 0.7681,-2.5323c-0.0025,-1.208 -0.4836,-2.3658 -1.3378,-3.22c-0.8542,-0.8542 -2.012,-1.3352 -3.22,-1.3378zM12.3762,52.7332c-0.677,0.002 -1.3393,-0.197 -1.9031,-0.5717c-0.56384,-0.3748 -1.00385,-0.9083 -1.26425,-1.5332c-0.26041,-0.6249 -0.32954,-1.313 -0.19865,-1.9772c0.13089,-0.6642 0.45596,-1.2747 0.93398,-1.7541c0.47802,-0.4793 1.08752,-0.8061 1.75132,-0.9389c0.6638,-0.1328 1.3522,-0.0656 1.9778,0.193c0.6256,0.2586 1.1605,0.6971 1.5368,1.2598c0.3763,0.5628 0.5772,1.2246 0.5772,1.9015c0.0013,0.4488 -0.086,0.8934 -0.2569,1.3084c-0.1708,0.415 -0.4219,0.7922 -0.7388,1.1099c-0.3168,0.3178 -0.6933,0.5699 -1.1078,0.742c-0.4145,0.172 -0.8588,0.2606 -1.3076,0.2605z"></path><path d="M59.5486,49.4583c-0.0429,0.1058 -0.1072,0.2016 -0.1889,0.2812c-0.0817,0.0797 -0.1791,0.1416 -0.2859,0.1818c-0.1069,0.0402 -0.2208,0.0578 -0.3348,0.0517c-0.114,-0.0061 -0.2255,-0.0358 -0.3274,-0.0871c-0.1243,-0.1068 -0.2235,-0.2397 -0.2907,-0.3892c-0.0671,-0.1494 -0.1006,-0.3119 -0.0981,-0.4757c-0.2915,-1.9436 -0.5734,-3.8873 -0.8649,-5.8309c-0.3401,-2.4296 -0.7969,-5.0632 -2.5753,-6.7444c-0.9116,-0.7676 -1.938,-1.3874 -3.0418,-1.8367l-9.7959,-4.5579c-2.0214,4.0622 -4.0428,8.0952 -6.0641,12.1574c-0.1225,0.317 -0.3397,0.5885 -0.622,0.7775c-0.2412,0.1061 -0.5053,0.1496 -0.7677,0.1264h-2.6725c-0.2593,0.0232 -0.5203,-0.0203 -0.7581,-0.1264c-0.2851,-0.1885 -0.5055,-0.4598 -0.6316,-0.7775c-1.9436,-3.965 -3.9845,-7.9202 -5.967,-11.8853v-0.0874l-11.6618,5.1117l-0.3887,0.175h-0.068l-1.4383,0.6511c-0.107,0.0487 -0.2227,0.0752 -0.3402,0.0777c-0.1305,0.0011 -0.2592,-0.0304 -0.37459,-0.0914c-0.11535,-0.0611 -0.21368,-0.1499 -0.28619,-0.2584c0,0 -0.00001,-0.0583 -0.06804,-0.0875v-0.068c0.00347,-0.0258 0.00347,-0.052 0,-0.0778c-0.00428,-0.0322 -0.00428,-0.0649 0,-0.0972c-0.04812,-0.1933 -0.02562,-0.3974 0.06347,-0.5756c0.08909,-0.1782 0.23892,-0.3187 0.42245,-0.3962l0.9621,-0.4567l0.6122,-0.2721c0.7095,-0.4082 1.4674,-0.7581 2.2157,-1.1079l10.0098,-4.4509c0.136,-0.0856 0.2883,-0.1419 0.4472,-0.1653c0.159,-0.0234 0.3211,-0.0135 0.476,0.0292c0.2263,0.1373 0.4006,0.3458 0.4956,0.5928l6.3751,12.6336h2.4782c2.1121,-4.2176 4.2274,-8.4288 6.346,-12.6336c0.1457,-0.2915 0.3304,-0.6219 0.6511,-0.6803c0.2097,-0.0014 0.4166,0.0487 0.6025,0.1458l10.8163,5.0632c1.1159,0.4548 2.1575,1.0739 3.0904,1.8367c1.325,1.323 2.2164,3.0177 2.5559,4.8591c0.2235,0.9718 0.379,1.8853 0.5248,2.8086c0.2721,1.7784 0.5442,3.5568 0.826,5.3158c0.1033,0.444 0.0831,0.9078 -0.0583,1.3411z"></path></g></g></svg>