<svg version="1.1" xmlns="http://www.w3.org/2000/svg" xmlns:xlink="http://www.w3.org/1999/xlink" width="58" height="46" viewBox="0,0,256,203.03125"><g fill="currentColor" fill-rule="nonzero" stroke="none" stroke-width="1" stroke-linecap="butt" stroke-linejoin="miter" stroke-miterlimit="10" stroke-dasharray="" stroke-dashoffset="0" font-family="none" font-weight="none" font-size="none" text-anchor="none" style="mix-blend-mode: normal"><g transform="translate(0.00061,-0.00108) scale(4.41379,4.41379)"><path d="M50.0256,13.3201c-0.0506,-0.1313 -0.1399,-0.2442 -0.2559,-0.3237c-0.1161,-0.0796 -0.2536,-0.1222 -0.3943,-0.1222h-0.9289v-0.9846c0.2355,-1.2909 0.2036,-2.61646 -0.0935,-3.89462c-0.2972,-1.27815 -0.8534,-2.48176 -1.6342,-3.53643c-2.1086,-2.64732 -5.8148,-3.99419 -11.0073,-3.99419c-0.0993,0.00269 -0.1971,0.02478 -0.288,0.06503c-0.7387,0.33399 -1.3207,0.93927 -1.6255,1.69055c-0.9037,-0.08945 -1.8161,0.0043 -2.6828,0.27562c-0.8666,0.27133 -1.6697,0.71467 -2.361,1.3035c-1.8578,1.73701 -2.6102,4.70945 -2.1737,8.83365l-0.8173,0.3066c-0.1122,0.0393 -0.2122,0.1071 -0.2904,0.1966c-0.0781,0.0895 -0.1317,0.1978 -0.1555,0.3143c-0.0929,0.483 -0.9289,4.7651 0.9289,6.5022c0.2676,0.2623 0.5888,0.4637 0.9415,0.5903c0.3527,0.1267 0.7286,0.1756 1.102,0.1435c0.3991,2.293 1.5214,4.3982 3.2028,6.0077c1.6813,1.6095 3.8335,2.6388 6.1418,2.9374h0.2044c2.2098,-0.4448 4.251,-1.4992 5.8926,-3.0439c1.6416,-1.5448 2.818,-3.5182 3.3962,-5.6969h0.9289c0.1771,-0.0015 0.3468,-0.0714 0.4737,-0.1951c0.9195,-0.9631 1.5478,-2.1667 1.8125,-3.4717c0.2646,-1.3051 0.1547,-2.6583 -0.317,-3.9036zM27.9832,12.9764c-0.5016,-3.92915 0.065,-6.67867 1.672,-8.17417c0.6299,-0.50698 1.3617,-0.87226 2.1456,-1.07102c0.7838,-0.19876 1.6012,-0.22632 2.3966,-0.08079c0.104,0.01832 0.2107,0.01455 0.3131,-0.01105c0.1024,-0.02561 0.1983,-0.07248 0.2814,-0.13757c0.0827,-0.06818 0.1478,-0.15524 0.1899,-0.25385c0.042,-0.09861 0.0597,-0.20587 0.0516,-0.31276c0,-0.56662 0.5574,-0.92889 0.8081,-1.10537c4.6445,0 7.9327,1.19826 9.744,3.45545c0.6594,0.9056 1.1279,1.93577 1.377,3.02797c0.2491,1.09219 0.2736,2.22366 0.0721,3.32556c-0.0051,0.0525 -0.0051,0.1054 0,0.1579v1.7742c0,0.1848 0.0734,0.362 0.204,0.4926c0.1307,0.1307 0.3079,0.2041 0.4927,0.2041h1.1704c0.2643,0.897 0.2947,1.8468 0.0882,2.759c-0.2065,0.9121 -0.643,1.7562 -1.2679,2.452h-1.0868c-0.1544,0.0007 -0.3042,0.0519 -0.4267,0.1458c-0.1225,0.094 -0.2108,0.2255 -0.2514,0.3744c-1.7834,6.9016 -7.4311,8.0813 -8.2113,8.2206c-2.1068,-0.2669 -4.0615,-1.2379 -5.547,-2.7555c-1.4855,-1.5175 -2.4146,-3.4925 -2.6365,-5.6044c-0.0086,-0.0998 -0.0378,-0.1968 -0.0858,-0.2847c-0.048,-0.0879 -0.1136,-0.165 -0.1929,-0.2262c-0.1223,-0.0872 -0.2679,-0.1357 -0.418,-0.1394h-0.1579c-0.2659,0.1035 -0.5558,0.1288 -0.8356,0.0728c-0.2799,-0.0559 -0.5378,-0.1908 -0.7435,-0.3886c-0.9289,-0.9289 -0.8081,-3.4183 -0.5852,-4.8673l0.9289,-0.353c0.1553,-0.0408 0.2914,-0.1347 0.3847,-0.2653c0.0933,-0.1307 0.1379,-0.2899 0.1262,-0.45z" fill="currentColor"></path><path d="M29.3302,27.021c0,0 -2.2665,-2.5172 -2.4894,-4.2914c-0.0117,-0.109 -0.0501,-0.2134 -0.1116,-0.3041c-0.0616,-0.0907 -0.1445,-0.1649 -0.2414,-0.2161c-0.9857,-0.636 -1.8101,-1.4923 -2.4081,-2.5014c-0.5981,-1.0091 -0.9535,-2.1434 -1.0381,-3.3134c-0.4366,-3.892 1.4584,-4.5608 1.5327,-4.5794c0.1439,-0.0435 0.2702,-0.1319 0.3604,-0.2522c0.0903,-0.1203 0.1397,-0.2662 0.1412,-0.4166v-3.52046c0.0792,-1.38904 0.5672,-2.72368 1.4026,-3.83629c0.0741,-0.08243 0.1278,-0.18116 0.1567,-0.28821c0.0289,-0.10705 0.0322,-0.2194 0.0096,-0.32795c-0.0226,-0.10855 -0.0705,-0.21025 -0.1397,-0.29685c-0.0693,-0.08661 -0.1579,-0.15569 -0.2588,-0.20164c-1.041,-0.43557 -2.16,-0.65368 -3.2883,-0.64093c-0.613,-0.78026 -2.1179,-1.91351 -5.6569,-1.60698c-1.9516,0.05104 -3.8355,0.72629 -5.3752,1.92662c-1.5397,1.20034 -2.65415,2.86255 -3.17979,4.74276c-0.04644,0.12075 -1.04963,2.96313 -1.56052,10.85863c-0.26008,4.0221 -1.24475,5.6476 -2.02501,6.2979c-0.26736,0.253 -0.61686,0.4014 -0.98462,0.418c-0.15987,-0.0227 -0.32266,0.0101 -0.46127,0.0929c-0.1386,0.0828 -0.24466,0.2107 -0.30042,0.3622c-0.05473,0.1508 -0.05497,0.3161 -0.00068,0.4671c0.05429,0.1509 0.15969,0.2782 0.29793,0.3596c3.13637,1.808 6.67328,2.8071 10.29208,2.9074h0.1207l0.2415,2.378l1.4955,5.2203c0.0374,0.1412 0.1187,0.2669 0.2323,0.3587c0.1136,0.0919 0.2535,0.1452 0.3994,0.1522c0.1404,-0.0012 0.2773,-0.0443 0.3931,-0.1237c0.1159,-0.0794 0.2054,-0.1916 0.2571,-0.3222c0,0 1.0868,-2.6008 6.5022,-4.9416c0.1253,-0.0534 0.232,-0.1429 0.3064,-0.257c0.0744,-0.1141 0.1133,-0.2477 0.1116,-0.384v-2.1085c1.7058,-0.0014 3.4032,-0.239 5.0438,-0.706c0.1008,-0.0446 0.1895,-0.1125 0.259,-0.1981c0.0694,-0.0856 0.1176,-0.1864 0.1404,-0.2942c0.0232,-0.1088 0.0192,-0.2217 -0.0116,-0.3286c-0.0308,-0.1069 -0.0874,-0.2046 -0.1648,-0.2845zM14.7281,27.4576c-3.0639,0.0329 -6.09387,-0.6443 -8.85227,-1.9785l0.14866,-0.1115c1.47692,-1.1797 2.34075,-3.6505 2.57297,-7.3289c0.49231,-7.5518 1.44904,-10.3663 1.49544,-10.48706c0.4228,-1.61434 1.3592,-3.0474 2.6678,-4.08291c1.3086,-1.03552 2.9185,-1.61732 4.5868,-1.65761c3.8549,-0.31582 4.6444,1.20756 4.6444,1.20756c0.0608,0.14882 0.17,0.27284 0.3098,0.35205c0.1399,0.07921 0.3024,0.10898 0.4612,0.08453c0.7132,-0.07968 1.4351,-0.00688 2.1179,0.21363c-0.6784,1.20145 -1.0724,2.54241 -1.1518,3.91989v3.12102c-0.8453,0.4924 -2.4616,1.9693 -2.025,5.8427c0.1143,1.3312 0.5196,2.621 1.1874,3.7783c0.6677,1.1573 1.5815,2.1538 2.6768,2.919c0.4185,1.4135 1.1236,2.7257 2.0714,3.8548c-1.4056,0.2123 -2.8237,0.3302 -4.245,0.353c-0.1832,0.0025 -0.358,0.0769 -0.4866,0.2073c-0.1287,0.1304 -0.2008,0.3062 -0.2008,0.4894v2.3315c-2.2547,0.9165 -4.274,2.3294 -5.9077,4.1335l-1.0868,-3.6505l-0.2879,-2.8981c-0.0205,-0.1699 -0.1029,-0.3264 -0.2314,-0.4394c-0.1285,-0.1131 -0.2941,-0.1749 -0.4653,-0.1737z"></path><path d="M16.4929,44.4098c-0.3769,-1.1299 -0.482,-2.3329 -0.3065,-3.5111c0.0092,-0.0957 -0.0017,-0.1923 -0.0321,-0.2835c-0.0304,-0.0912 -0.0795,-0.175 -0.1443,-0.246l-2.7867,-3.0467c-0.0656,-0.0699 -0.1447,-0.1257 -0.2325,-0.1641c-0.0879,-0.0383 -0.1826,-0.0583 -0.2784,-0.0589h-3.71555l4.25435,-5.7405c0.0822,-0.1105 0.1299,-0.2429 0.1369,-0.3805c0.0071,-0.1376 -0.0269,-0.2742 -0.0975,-0.3925c-0.0706,-0.1183 -0.1746,-0.213 -0.2991,-0.2722c-0.1244,-0.0591 -0.2636,-0.0801 -0.3999,-0.0601c-12.382,1.8577 -12.48418,8.7686 -12.48418,9.0658v4.0128c0.00016,0.1847 0.0737,0.3618 0.20438,0.4923l1.56981,1.5699c0.13053,0.1306 0.30758,0.2041 0.49228,0.2043h13.6082c0.1373,0.0009 0.2717,-0.0393 0.3859,-0.1154c0.1142,-0.0762 0.2031,-0.1848 0.255,-0.3119c0.0559,-0.1256 0.0734,-0.2649 0.0502,-0.4005c-0.0231,-0.1355 -0.0858,-0.2612 -0.1803,-0.3612zM7.06481,37.3782c-0.07639,0.1049 -0.1228,0.2286 -0.13425,0.3579c-0.01146,0.1293 0.01247,0.2592 0.06922,0.3759c0.05922,0.1141 0.14845,0.21 0.25813,0.2771c0.10968,0.0671 0.23562,0.103 0.36421,0.1038h4.77448l2.3779,2.6008c-0.0752,1.0405 -0.0159,2.0864 0.1765,3.1118h-12.27985l-1.1611,-1.1611v-3.7156c0,-0.2229 0.13005,-5.4246 9.58605,-7.3846z"></path><path d="M53.7402,34.0897l-7.3661,-2.5358c-0.0882,-0.0356 -0.1827,-0.0529 -0.2778,-0.051c-0.0951,0.0019 -0.1889,0.023 -0.2757,0.062c-0.0867,0.0391 -0.1647,0.0952 -0.2292,0.1652c-0.0645,0.0699 -0.1142,0.1522 -0.1462,0.2418l-3.0838,8.3599l-2.4523,-3.539v-0.2044c0.7339,-0.5759 2.1829,-1.932 1.9971,-3.474c-0.2229,-1.7834 -1.802,-2.8981 -4.18,-2.8981c-2.3779,0 -3.9013,1.1147 -4.1242,2.8981c-0.1858,1.542 1.2633,2.8981 1.9971,3.474v0.2044l-2.4523,3.539l-3.0839,-8.3599c-0.0319,-0.0896 -0.0816,-0.1719 -0.1461,-0.2418c-0.0645,-0.07 -0.1424,-0.1261 -0.2292,-0.1652c-0.0867,-0.039 -0.1805,-0.0601 -0.2756,-0.062c-0.0952,-0.0019 -0.1897,0.0154 -0.278,0.051l-7.431,2.5544c-0.1579,0.0743 -3.9385,1.7371 -4.2264,5.4619v3.474c0.1406,0.6005 0.4357,1.1539 0.8561,1.6052c0.4204,0.4513 0.9514,0.7849 1.5404,0.9678c0.0678,0.0091 0.1365,0.0091 0.2043,0h35.2048c0.0678,0.0091 0.1365,0.0091 0.2043,0c0.6102,-0.187 1.1572,-0.5379 1.5815,-1.0146c0.4242,-0.4767 0.7094,-1.0608 0.8243,-1.6885v-3.3997c-0.1672,-3.6969 -3.9756,-5.3504 -4.1521,-5.4247zM36.9089,37.4709c0.0828,-0.1169 0.1281,-0.2562 0.13,-0.3994v-0.7617c0.0017,-0.1118 -0.0245,-0.2222 -0.0765,-0.3212c-0.0519,-0.099 -0.1278,-0.1833 -0.2208,-0.2454c-0.7152,-0.5016 -1.8577,-1.5977 -1.7091,-2.3966c0.13,-1.0496 1.1518,-1.6719 2.7866,-1.6719c1.6349,0 2.6102,0.6223 2.7867,1.6719c0.1022,0.7989 -0.9939,1.8578 -1.6999,2.3873c-0.0948,0.0631 -0.1724,0.1487 -0.2259,0.2492c-0.0535,0.1006 -0.0812,0.2128 -0.0806,0.3267v0.7617c0.0018,0.1432 0.0472,0.2825 0.13,0.3994l3.3348,4.8209c0.0727,0.1047 0.1728,0.1874 0.2894,0.2391c0.1165,0.0518 0.2451,0.0705 0.3716,0.0542c0.1264,-0.0163 0.246,-0.067 0.3456,-0.1465c0.0997,-0.0796 0.1756,-0.185 0.2195,-0.3047l3.3161,-9.0009l6.6694,2.2943c0,0 3.1674,1.3934 3.3811,4.18v3.1675c-0.083,0.3367 -0.2488,0.6474 -0.4824,0.9037c-0.2336,0.2563 -0.5276,0.4502 -0.8552,0.564h-35.0004c-0.3139,-0.1104 -0.5981,-0.2919 -0.8301,-0.5304c-0.2321,-0.2385 -0.4058,-0.5275 -0.5074,-0.8444v-3.2047c0.2043,-2.6844 3.0003,-4.0592 3.344,-4.2264l6.7065,-2.3036l3.3161,9.0009c0.0476,0.1197 0.1259,0.2248 0.227,0.3047c0.1011,0.0799 0.2214,0.1318 0.3489,0.1505c0.1262,0.0107 0.253,-0.011 0.3684,-0.063c0.1154,-0.052 0.2156,-0.1327 0.2911,-0.2343z"></path></g></g></svg>