<svg version="1.1" xmlns="http://www.w3.org/2000/svg" xmlns:xlink="http://www.w3.org/1999/xlink" width="56" height="42" viewBox="0,0,256,192"><defs><clipPath id="clip-1"><rect x="41.3916" y="0.24219" width="14.3184" height="14.3562" id="clip0_3106_64652" fill="currentColor"></rect></clipPath></defs><g fill="none" fill-rule="nonzero" stroke="none" stroke-width="1" stroke-linecap="butt" stroke-linejoin="miter" stroke-miterlimit="10" stroke-dasharray="" stroke-dashoffset="0" font-family="none" font-weight="none" font-size="none" text-anchor="none" style="mix-blend-mode: normal"><g transform="translate(-0.00009,-0.00043) scale(4.57143,4.57143)"><path d="M18.6844,1.17822c-2.103,0 -4.1586,0.62361 -5.9072,1.79193c-1.7485,1.16832 -3.11132,2.82891 -3.91607,4.77176c-0.80476,1.94285 -1.01533,4.08069 -0.60507,6.14319c0.41026,2.0625 1.42296,3.9571 2.90994,5.4441c1.487,1.487 3.3815,2.4996 5.444,2.9099c2.0626,0.4103 4.2005,0.1997 6.1433,-0.6051c1.9429,-0.8047 3.6034,-2.1675 4.7718,-3.916c1.1683,-1.7486 1.7919,-3.8043 1.7919,-5.9072c-0.0022,-2.81924 -1.1232,-5.52241 -3.1167,-7.51593c-1.9935,-1.99351 -4.6967,-3.11443 -7.5159,-3.11665zM18.6844,21.1876c-1.8546,0 -3.6675,-0.55 -5.2095,-1.5803c-1.542,-1.0303 -2.7439,-2.4948 -3.4536,-4.2082c-0.70967,-1.7133 -0.89534,-3.5987 -0.53354,-5.41761c0.36181,-1.81891 1.25484,-3.4897 2.56624,-4.80106c1.3113,-1.31137 2.9821,-2.20441 4.8011,-2.56621c1.8189,-0.36181 3.7042,-0.17613 5.4176,0.53358c1.7134,0.7097 3.1778,1.91154 4.2082,3.45355c1.0303,1.542 1.5802,3.35492 1.5802,5.20945c-0.0022,2.4862 -0.9908,4.8699 -2.7488,6.6279c-1.758,1.758 -4.1417,2.7467 -6.6279,2.7489z" fill="currentColor"></path><path d="M23.6164,26.1607l-0.1005,0.2009l-0.1004,0.1926l-0.2261,0.3684l-0.1005,0.2009l-0.092,0.201c-16.53498,-2.3526 -20.70433,9.2093 -21.39084,11.5618c-0.03647,0.1281 -0.05612,0.2604 -0.05856,0.3935c0.0586,1.1973 2.26044,1.2224 2.27719,1.2224c0.16653,0 0.32624,0.0661 0.444,0.1839c0.11776,0.1177 0.18391,0.2774 0.18391,0.444c0,0.1665 -0.06615,0.3262 -0.18391,0.444c-0.11776,0.1177 -0.27747,0.1839 -0.444,0.1839c-0.13396,0 -3.4158,0 -3.53301,-2.4196c-0.01012,-0.2831 0.02666,-0.566 0.10884,-0.8372c0.48558,-1.5321 4.93953,-15.1368 23.21588,-12.3405z" fill="currentColor"></path><path d="M51.7967,22.1588c-0.0551,-0.0903 -0.1326,-0.1648 -0.2251,-0.2161c-0.0924,-0.0514 -0.1966,-0.0779 -0.3024,-0.077h-25.1163c-0.1172,-0.0004 -0.2321,0.0324 -0.3314,0.0947c-0.0993,0.0622 -0.1789,0.1513 -0.2295,0.257l-1.9424,3.9432l-0.1004,0.201l-0.1005,0.1925l-0.2595,0.3684l-0.1005,0.2009l-0.0921,0.201l-4.7051,9.6447h-9.41863c-0.32369,-0.0005 -0.64152,0.0864 -0.91999,0.2514c-0.27847,0.1651 -0.50728,0.4021 -0.66235,0.6862c-0.16405,0.2807 -0.25049,0.6 -0.25049,0.9252c0,0.3251 0.08644,0.6444 0.25049,0.9251l0.13393,0.2009c0.40771,0.5663 0.94681,1.0252 1.57095,1.3373c0.62413,0.312 1.31469,0.4679 2.01239,0.4543h31.5796c0.119,-0.0007 0.2355,-0.0348 0.3362,-0.0985c0.1006,-0.0636 0.1813,-0.1542 0.2331,-0.2615l8.6818,-18.653c0.0406,-0.0925 0.0581,-0.1934 0.0508,-0.2941c-0.0073,-0.1006 -0.0391,-0.198 -0.0926,-0.2836zM42.219,40.5272h-31.1778c-0.4883,0.0053 -0.9709,-0.1058 -1.40766,-0.3242c-0.4368,-0.2184 -0.81523,-0.5378 -1.10395,-0.9316c-0.03274,-0.0415 -0.0608,-0.0864 -0.08371,-0.134c-0.05313,-0.0885 -0.08119,-0.1898 -0.08119,-0.293c0,-0.1032 0.02806,-0.2045 0.08119,-0.293c0.04757,-0.0894 0.11877,-0.1641 0.20588,-0.2157c0.08712,-0.0517 0.18677,-0.0785 0.28805,-0.0773l9.80379,-0.067c0.1172,0.0004 0.2321,-0.0324 0.3314,-0.0946c0.0992,-0.0623 0.1788,-0.1514 0.2295,-0.257l7.2335,-14.7182h23.7769z" fill="#ffffff"></path><g clip-path="url(#clip-1)"><path d="M44.6369,10.1865c-0.0832,0.0008 -0.1644,-0.0258 -0.2309,-0.0758c-0.0666,-0.05 -0.1147,-0.12054 -0.1371,-0.2007c-0.0225,-0.08016 -0.0178,-0.16546 0.0132,-0.24271c0.0309,-0.07725 0.0865,-0.14213 0.1581,-0.1846l3.7839,-2.27035v-4.2153c0,-0.10035 0.0399,-0.19659 0.1109,-0.26755c0.0709,-0.07097 0.1672,-0.11084 0.2675,-0.11084c0.1004,0 0.1966,0.03987 0.2676,0.11084c0.0709,0.07096 0.1108,0.1672 0.1108,0.26755v4.4726c0.0004,0.06531 -0.0161,0.12959 -0.048,0.18661c-0.0318,0.05703 -0.0779,0.10485 -0.1336,0.1388l-3.9732,2.39145c-0.0622,0.0145 -0.1269,0.0145 -0.1892,0z" fill="#ffffff"></path><path d="M55.7104,7.42409c-0.0022,1.59219 -0.5333,3.13851 -1.5101,4.39591c-0.9767,1.2574 -2.3436,2.1546 -3.8858,2.5505c-1.5421,0.396 -3.1722,0.2682 -4.6338,-0.3632c-1.4617,-0.6313 -2.6721,-1.7305 -3.441,-3.1247c-0.0368,-0.0649 -0.0604,-0.1364 -0.0695,-0.2104c-0.009,-0.074 -0.0035,-0.1491 0.0165,-0.221c0.046,-0.143 0.1429,-0.2643 0.2724,-0.3405c0.1309,-0.0679 0.2832,-0.0822 0.4244,-0.0398c0.1413,0.0424 0.2605,0.1381 0.3324,0.2668c0.5132,0.938 1.2657,1.7233 2.1809,2.2762c0.9152,0.5528 1.9605,0.8534 3.0296,0.8712c1.0691,0.0178 2.1238,-0.2479 3.0569,-0.77c0.9331,-0.522 1.7113,-1.2819 2.2554,-2.2023c0.5442,-0.92037 0.8349,-1.96846 0.8425,-3.03765c0.0077,-1.06919 -0.2679,-2.12135 -0.7987,-3.04947c-0.5309,-0.92812 -1.2981,-1.6991 -2.2236,-2.23453c-0.9255,-0.53543 -1.9763,-0.81621 -3.0455,-0.81378c-0.1505,0 -0.2949,-0.0598 -0.4013,-0.16624c-0.1065,-0.10644 -0.1663,-0.25082 -0.1663,-0.40135c0,-0.15053 0.0598,-0.29488 0.1663,-0.40133c0.1064,-0.10644 0.2508,-0.16626 0.4013,-0.16626c0.9441,-0.00099 1.8792,0.18399 2.7519,0.54438c0.8726,0.36038 1.6657,0.88912 2.334,1.55602c0.6683,0.6669 1.1988,1.45891 1.561,2.33079c0.3622,0.87188 0.5491,1.80658 0.5501,2.75071z" fill="#ffffff"></path><path d="M42.9052,4.88881c0.418,0 0.7568,-0.33882 0.7568,-0.75678c0,-0.41796 -0.3388,-0.75679 -0.7568,-0.75679c-0.4179,0 -0.7568,0.33883 -0.7568,0.75679c0,0.41796 0.3389,0.75678 0.7568,0.75678z" fill="#ffffff"></path><path d="M45.1748,1.86171c0.4179,0 0.7567,-0.33882 0.7567,-0.75678c0,-0.41796 -0.3388,-0.75678 -0.7567,-0.75678c-0.418,0 -0.7568,0.33882 -0.7568,0.75679c0,0.41796 0.3388,0.75678 0.7568,0.75678z" fill="#ffffff"></path><path d="M42.1484,8.67275c0.4179,0 0.7568,-0.33883 0.7568,-0.75679c0,-0.41796 -0.3389,-0.75678 -0.7568,-0.75678c-0.418,0 -0.7568,0.33882 -0.7568,0.75678c0,0.41796 0.3388,0.75679 0.7568,0.75679z" fill="#ffffff"></path></g></g></g></svg>