<svg xmlns="http://www.w3.org/2000/svg" width="61" height="61" viewBox="0 0 61 61" fill="none">
                                <path d="M36.494 22.365V21.4078C36.3828 11.4969 21.785 11.4969 21.6738 21.4078V22.365M36.494 22.365C38.1813 23.1014 39.2712 24.7671 39.2727 26.6072V36.4873C39.2727 39.0454 37.1995 41.1186 34.6414 41.1186H23.5263C20.9683 41.1186 18.895 39.0454 18.895 36.4873V26.6072C18.8966 24.7671 19.9865 23.1014 21.6738 22.365M36.494 22.365H21.6738M30.2324 36.1786H27.9353C27.855 36.1786 27.7748 36.1709 27.696 36.1554C27.0276 36.0242 26.5922 35.3743 26.7235 34.7058C27.0121 33.2701 27.4228 31.203 27.5679 30.479C27.5957 30.3138 27.5509 30.144 27.4444 30.0128C26.9735 29.3304 26.9735 28.4273 27.4444 27.745C28.0712 26.8388 29.3124 26.6134 30.2185 27.2386C31.1232 27.8654 31.3501 29.1066 30.7234 30.0128C30.6184 30.144 30.5721 30.3169 30.5999 30.4836L31.4443 34.7012C31.4597 34.7815 31.4674 34.8633 31.4674 34.9436C31.4674 35.6259 30.9148 36.1786 30.2324 36.1786Z" stroke="white" stroke-width="2" stroke-miterlimit="10"></path>
                                <path d="M30.6439 59.0879L30.6413 59.0892C30.1393 59.3451 29.5446 59.3451 29.0426 59.0892L29.04 59.0879C16.9311 52.959 10.2271 44.9134 6.53088 36.6863C2.8236 28.4347 2.11247 19.9349 2.10938 12.8644V12.8514C2.12168 11.8587 2.93461 11.0633 3.92757 11.0732L3.92983 11.0732C14.6742 11.1562 24.9554 4.56232 28.8101 1.76915C29.4268 1.32433 30.2572 1.32435 30.8738 1.7692C34.7259 4.56047 44.9833 11.1809 55.7544 11.0732C56.7523 11.0684 57.5658 11.8711 57.5745 12.8682C57.5712 19.938 56.8596 28.4362 53.153 36.6863C49.4567 44.9134 42.7528 52.959 30.6439 59.0879Z" stroke="white" stroke-width="2" stroke-miterlimit="10"></path>
                              </svg>