<svg xmlns="http://www.w3.org/2000/svg" width="61" height="61" viewBox="0 0 61 61" fill="none">
                                <g clip-path="url(#clip0_7330_97611)">
                                  <path d="M33.3748 20.2517C31.8254 19.2105 29.7834 19.2674 28.2934 20.3935C28.1464 20.5046 28.038 20.659 27.9835 20.8351C27.9291 21.0111 27.9314 21.1998 27.99 21.3745C28.0487 21.5492 28.1608 21.701 28.3104 21.8085C28.4601 21.916 28.6397 21.9738 28.824 21.9736C29.0151 21.9737 29.201 21.9113 29.3532 21.7958C30.2451 21.1219 31.4673 21.0876 32.3942 21.7105C32.5877 21.8382 32.8238 21.8843 33.0511 21.8388C33.2785 21.7932 33.4785 21.6597 33.6079 21.4673C33.7372 21.2749 33.7852 21.0392 33.7416 20.8115C33.6979 20.5838 33.5661 20.3826 33.3748 20.2517ZM36.2122 16.3963C33.0117 14.0952 28.7309 14.1232 25.5596 16.4655C25.4659 16.5337 25.3865 16.6198 25.3262 16.7188C25.2658 16.8178 25.2257 16.9278 25.208 17.0424C25.1903 17.157 25.1955 17.274 25.2233 17.3866C25.251 17.4992 25.3008 17.6051 25.3697 17.6984C25.4386 17.7917 25.5253 17.8704 25.6247 17.93C25.7242 17.9897 25.8345 18.029 25.9492 18.0458C26.0639 18.0626 26.1809 18.0566 26.2932 18.028C26.4056 17.9994 26.5113 17.9489 26.604 17.8793C29.1588 15.9921 32.6076 15.9698 35.1861 17.8234C35.3755 17.9564 35.6097 18.0093 35.8378 17.9706C36.0659 17.932 36.2696 17.805 36.4047 17.6172C36.5398 17.4293 36.5953 17.1957 36.5593 16.9672C36.5232 16.7386 36.3985 16.5335 36.2122 16.3963Z" fill="white"></path>
                                  <path d="M38.9176 12.4475C36.5752 10.7648 33.7611 9.86522 30.877 9.87707C27.9929 9.88892 25.1863 10.8116 22.8578 12.5135C22.6694 12.6508 22.5433 12.8573 22.5072 13.0876C22.4711 13.3179 22.5279 13.5531 22.6652 13.7415C22.8025 13.9299 23.0091 14.056 23.2394 14.0921C23.4697 14.1282 23.7049 14.0713 23.8932 13.934C25.9232 12.4503 28.3699 11.6459 30.8842 11.6356C33.3985 11.6253 35.8518 12.4095 37.8939 13.8765C38.0835 14.0082 38.3174 14.06 38.5449 14.0206C38.7724 13.9813 38.9753 13.8541 39.1098 13.6664C39.2443 13.4787 39.2995 13.2456 39.2635 13.0175C39.2276 12.7895 39.1033 12.5847 38.9176 12.4475ZM59.0723 29.5843H57.0632C56.6404 26.9259 54.3327 24.8873 51.5572 24.8873H10.224C7.44855 24.8873 5.1409 26.9259 4.71809 29.5843H2.70891C1.70625 29.5843 0.890625 30.3999 0.890625 31.4026V35.8715C0.890625 36.8591 1.27523 37.7875 1.97344 38.4857L4.64812 41.1604V42.6752C4.64812 47.3036 8.41371 51.0692 13.0421 51.0692H22.8252C24.6264 51.0692 26.3197 50.3678 27.5933 49.0941C27.86 48.826 28.1772 48.6134 28.5266 48.4687C28.876 48.3239 29.2507 48.2499 29.6289 48.251H32.1523C32.9212 48.251 33.6441 48.5504 34.1878 49.0941C35.4614 50.3677 37.1548 51.0692 38.9559 51.0692H48.739C53.3674 51.0692 57.133 47.3036 57.133 42.6752V41.1604L59.8077 38.4857C60.5059 37.7875 60.8905 36.8591 60.8905 35.8715V31.4026C60.8906 30.3999 60.075 29.5843 59.0723 29.5843ZM4.64812 38.6746L3.21645 37.2428C3.03579 37.0632 2.89256 36.8495 2.79507 36.6141C2.69757 36.3787 2.64773 36.1263 2.64844 35.8715V31.4026C2.64844 31.3692 2.67551 31.3421 2.70891 31.3421H4.64812V38.6746ZM55.3753 42.6752C55.3753 46.3344 52.3983 49.3114 48.7391 49.3114H38.9561C37.6245 49.3114 36.3725 48.7928 35.4308 47.8512C34.5551 46.9755 33.3908 46.4933 32.1523 46.4933H29.6289C28.3904 46.4933 27.2261 46.9755 26.3503 47.8512C25.4087 48.7928 24.1568 49.3114 22.8251 49.3114H13.042C9.38285 49.3114 6.40582 46.3344 6.40582 42.6752V30.4632C6.40582 28.3579 8.11863 26.6451 10.2239 26.6451H14.4814L15.9087 28.5481C16.7797 29.7094 18.1663 30.4027 19.6179 30.4027H37.4667C37.6998 30.4027 37.9234 30.3101 38.0882 30.1453C38.253 29.9805 38.3456 29.7569 38.3456 29.5238C38.3456 29.2907 38.253 29.0672 38.0882 28.9023C37.9234 28.7375 37.6998 28.6449 37.4667 28.6449H19.6179C18.7166 28.6449 17.8557 28.2145 17.3149 27.4934L16.6787 26.6451H45.1024L44.4662 27.4934C43.9254 28.2145 43.0645 28.6449 42.1632 28.6449H41.2241C40.991 28.6449 40.7674 28.7375 40.6026 28.9023C40.4378 29.0672 40.3452 29.2907 40.3452 29.5238C40.3452 29.7569 40.4378 29.9805 40.6026 30.1453C40.7674 30.3101 40.991 30.4027 41.2241 30.4027H42.1632C43.6148 30.4027 45.0014 29.7093 45.8725 28.5481L47.2997 26.6451H51.5572C53.6625 26.6451 55.3753 28.3579 55.3753 30.4632V42.6752ZM58.5648 37.2428L57.133 38.6746V31.3421H59.0722C59.1056 31.3421 59.1327 31.3692 59.1327 31.4026V35.8715H59.1328C59.1335 36.1263 59.0837 36.3787 58.9862 36.6141C58.8887 36.8495 58.7455 37.0632 58.5648 37.2428Z" fill="white"></path>
                                </g>
                                <defs>
                                  <clipPath id="clip0_7330_97611">
                                    <rect width="60" height="60" fill="white" transform="translate(0.890625 0.472656)"></rect>
                                  </clipPath>
                                </defs>
                              </svg>