<svg xmlns="http://www.w3.org/2000/svg" width="61" height="61" viewBox="0 0 61 61" fill="none">
                                <path d="M57 36.8811V44.9371C57 47.4049 55.0187 49.4126 52.5833 49.4126H8.41667C5.98132 49.4126 4 47.4049 4 44.9371V36.8811C4 34.4133 5.98132 32.4056 8.41667 32.4056H10.1833V9.3007C10.1833 7.48073 11.6446 6 13.4406 6C15.2367 6 16.6979 7.48073 16.6979 9.3007V29.9441C16.6979 30.1815 16.6049 30.4091 16.4392 30.577C16.2735 30.7449 16.0489 30.8392 15.8146 30.8392C15.5803 30.8392 15.3556 30.7449 15.19 30.577C15.0243 30.4091 14.9312 30.1815 14.9312 29.9441V9.3007C14.9312 8.4678 14.2626 7.79021 13.4406 7.79021C12.6187 7.79021 11.95 8.4678 11.95 9.3007V32.4056H38.8549C39.0892 32.4056 39.3139 32.4999 39.4795 32.6678C39.6452 32.8356 39.7382 33.0633 39.7382 33.3007C39.7382 33.5381 39.6452 33.7658 39.4795 33.9336C39.3139 34.1015 39.0892 34.1958 38.8549 34.1958H8.41667C6.95552 34.1958 5.76667 35.4004 5.76667 36.8811V44.9371C5.76667 46.4178 6.95552 47.6224 8.41667 47.6224H52.5833C54.0445 47.6224 55.2333 46.4178 55.2333 44.9371V36.8811C55.2333 35.4004 54.0445 34.1958 52.5833 34.1958H45.1854C44.9511 34.1958 44.7265 34.1015 44.5608 33.9336C44.3951 33.7658 44.3021 33.5381 44.3021 33.3007V9.3007C44.3021 7.48073 45.7633 6 47.5594 6C49.3554 6 50.8167 7.48073 50.8167 9.3007V29.9441C50.8167 30.1815 50.7236 30.4091 50.5579 30.577C50.3923 30.7449 50.1676 30.8392 49.9333 30.8392C49.6991 30.8392 49.4744 30.7449 49.3087 30.577C49.1431 30.4091 49.05 30.1815 49.05 29.9441V9.3007C49.05 8.4678 48.3813 7.79021 47.5594 7.79021C46.7374 7.79021 46.0687 8.4678 46.0687 9.3007V32.4056H52.5833C55.0187 32.4056 57 34.4133 57 36.8811ZM12.1708 40.014C11.9366 40.014 11.7119 40.1083 11.5462 40.2762C11.3806 40.444 11.2875 40.6717 11.2875 40.9091C11.2875 41.1465 11.3806 41.3742 11.5462 41.542C11.7119 41.7099 11.9366 41.8042 12.1708 41.8042H14.5264C14.7606 41.8042 14.9853 41.7099 15.151 41.542C15.3166 41.3742 15.4097 41.1465 15.4097 40.9091C15.4097 40.6717 15.3166 40.444 15.151 40.2762C14.9853 40.1083 14.7606 40.014 14.5264 40.014H12.1708ZM18.3909 40.014C18.1567 40.014 17.932 40.1083 17.7663 40.2762C17.6007 40.444 17.5076 40.6717 17.5076 40.9091C17.5076 41.1465 17.6007 41.3742 17.7663 41.542C17.932 41.7099 18.1567 41.8042 18.3909 41.8042H24.6479C24.8822 41.8042 25.1069 41.7099 25.2725 41.542C25.4382 41.3742 25.5312 41.1465 25.5312 40.9091C25.5312 40.6717 25.4382 40.444 25.2725 40.2762C25.1069 40.1083 24.8822 40.014 24.6479 40.014H18.3909ZM17.0292 52.2098H10.8458C10.6116 52.2098 10.3869 52.3041 10.2212 52.472C10.0556 52.6398 9.9625 52.8675 9.9625 53.1049C9.9625 53.3423 10.0556 53.57 10.2212 53.7378C10.3869 53.9057 10.6116 54 10.8458 54H17.0292C17.2634 54 17.4881 53.9057 17.6538 53.7378C17.8194 53.57 17.9125 53.3423 17.9125 53.1049C17.9125 52.8675 17.8194 52.6398 17.6538 52.472C17.4881 52.3041 17.2634 52.2098 17.0292 52.2098ZM50.1542 52.2098H43.9708C43.7366 52.2098 43.5119 52.3041 43.3462 52.472C43.1806 52.6398 43.0875 52.8675 43.0875 53.1049C43.0875 53.3423 43.1806 53.57 43.3462 53.7378C43.5119 53.9057 43.7366 54 43.9708 54H50.1542C50.3884 54 50.6131 53.9057 50.7788 53.7378C50.9444 53.57 51.0375 53.3423 51.0375 53.1049C51.0375 52.8675 50.9444 52.6398 50.7788 52.472C50.6131 52.3041 50.3884 52.2098 50.1542 52.2098ZM31.7092 22.7915C32.7423 23.8384 32.0196 25.6565 30.538 25.6565C29.0736 25.6565 28.3228 23.8494 29.3668 22.7915C29.5202 22.6352 29.7028 22.5112 29.9038 22.4268C30.1048 22.3424 30.3204 22.2993 30.538 22.2999C31.282 22.3 31.7092 22.7915 31.7092 22.7915ZM34.598 21.1301C34.68 21.047 34.7451 20.9483 34.7895 20.8397C34.8339 20.7311 34.8568 20.6147 34.8568 20.4971C34.8568 20.3796 34.8339 20.2632 34.7895 20.1546C34.7451 20.046 34.68 19.9473 34.598 19.8642C32.354 17.5903 28.7222 17.5902 26.4781 19.8642C26.396 19.9473 26.3309 20.046 26.2865 20.1546C26.2421 20.2632 26.2193 20.3796 26.2193 20.4971C26.2193 20.6147 26.2421 20.7311 26.2865 20.8397C26.3309 20.9483 26.396 21.047 26.4781 21.1301C26.6437 21.2979 26.8684 21.3922 27.1026 21.3922C27.3369 21.3922 27.5616 21.2979 27.7272 21.1301C29.2808 19.5558 31.795 19.5557 33.3487 21.1301C33.4308 21.2132 33.5282 21.2791 33.6353 21.3241C33.7425 21.3691 33.8574 21.3923 33.9734 21.3923C34.0894 21.3923 34.2043 21.3691 34.3114 21.3241C34.4186 21.2791 34.516 21.2132 34.598 21.1301ZM24.4481 17.8071C27.814 14.3963 33.2617 14.3961 36.628 17.8071C36.7099 17.8904 36.8073 17.9564 36.9145 18.0014C37.0217 18.0463 37.1366 18.0694 37.2526 18.0693C38.0325 18.0693 38.4353 17.1067 37.8773 16.5412C33.8209 12.4309 27.2555 12.4304 23.1989 16.5412C23.1169 16.6243 23.0518 16.723 23.0074 16.8316C22.963 16.9402 22.9401 17.0566 22.9401 17.1742C22.9401 17.2917 22.963 17.4081 23.0074 17.5167C23.0518 17.6253 23.1169 17.724 23.1989 17.8071C23.2809 17.8902 23.3783 17.9562 23.4855 18.0012C23.5926 18.0462 23.7075 18.0693 23.8235 18.0693C23.9395 18.0693 24.0544 18.0462 24.1615 18.0012C24.2687 17.9562 24.3661 17.8902 24.4481 17.8071Z" fill="white"></path>
                              </svg>