<svg xmlns="http://www.w3.org/2000/svg" width="60" height="61" viewBox="0 0 60 61" fill="none">
                                <path d="M35.1892 56.6791H25.4903C25.0673 56.6793 24.6486 56.5938 24.2595 56.4278C23.8704 56.2619 23.519 56.0188 23.2264 55.7133C22.9338 55.4078 22.7061 55.0463 22.557 54.6504C22.4079 54.2545 22.3405 53.8326 22.3589 53.41V46.887C22.3589 46.6719 22.4443 46.4657 22.5964 46.3137C22.7485 46.1616 22.9547 46.0762 23.1697 46.0762C23.3848 46.0762 23.591 46.1616 23.7431 46.3137C23.8951 46.4657 23.9805 46.6719 23.9805 46.887V53.41C23.9631 53.6192 23.9891 53.8298 24.057 54.0285C24.1248 54.2272 24.233 54.4098 24.3748 54.5646C24.5166 54.7195 24.6889 54.8434 24.8809 54.9285C25.0728 55.0136 25.2803 55.0581 25.4903 55.0591H35.1892C35.6672 55.0722 36.1338 54.9127 36.5038 54.6099C36.8738 54.307 37.1224 53.8811 37.2041 53.41V46.887C37.2041 46.6719 37.2895 46.4657 37.4415 46.3137C37.5936 46.1616 37.7998 46.0762 38.0149 46.0762C38.2299 46.0762 38.4361 46.1616 38.5882 46.3137C38.7403 46.4657 38.8257 46.6719 38.8257 46.887V53.41C38.7518 54.3163 38.3339 55.1599 37.6577 55.7678C36.9814 56.3758 36.0982 56.7018 35.1892 56.6791Z" fill="white"></path>
                                <path d="M37.3271 47.6984H23.8579C23.4774 47.6962 23.1097 47.5607 22.8186 47.3156C22.5276 47.0704 22.3316 46.7311 22.2647 46.3565C21.585 43.1706 20.0422 40.2329 17.8052 37.8649C15.6569 35.4084 14.2616 32.3852 13.7861 29.1568C13.3106 25.9283 13.775 22.6312 15.1239 19.6597C16.4727 16.6881 18.6489 14.168 21.3921 12.4006C24.1353 10.6332 27.3296 9.69328 30.5929 9.69328C33.8562 9.69328 37.0505 10.6332 39.7937 12.4006C42.537 14.168 44.7131 16.6881 46.0619 19.6597C47.4108 22.6312 47.8752 25.9283 47.3997 29.1568C46.9242 32.3852 45.5289 35.4084 43.3806 37.8649C41.1428 40.2327 39.5992 43.1704 38.9187 46.3565C38.8519 46.7308 38.6561 47.07 38.3654 47.3151C38.0747 47.5602 37.7073 47.6958 37.3271 47.6984ZM30.582 11.3222C27.6318 11.3231 24.7444 12.1736 22.2648 13.772C19.7852 15.3704 17.8183 17.6491 16.5994 20.3356C15.3804 23.0221 14.9609 26.0028 15.391 28.9215C15.8211 31.8401 17.0826 34.5731 19.0247 36.7938C21.457 39.3805 23.1298 42.5873 23.8595 46.0622L37.319 46.0768C38.0515 42.5971 39.7269 39.3859 42.162 36.7946C44.0481 34.6381 45.2935 31.9972 45.7575 29.1701C46.2215 26.343 45.8856 23.4424 44.7877 20.7962C43.6899 18.15 41.8738 15.8636 39.5447 14.1953C37.2156 12.527 34.4664 11.5433 31.6076 11.3554C31.2649 11.3338 30.923 11.3227 30.582 11.3222ZM30.5917 59.6311C29.6139 59.6296 28.6766 59.2404 27.9853 58.5488C27.294 57.8572 26.9052 56.9197 26.9041 55.9419C26.9017 55.7194 26.9842 55.5043 27.1349 55.3405C27.2855 55.1768 27.493 55.0766 27.7149 55.0606H33.4717C33.6867 55.0606 33.893 55.146 34.045 55.298C34.1971 55.4501 34.2825 55.6563 34.2825 55.8714C34.2893 56.3612 34.1989 56.8475 34.0167 57.3022C33.8344 57.7569 33.5639 58.171 33.2208 58.5205C32.8776 58.8701 32.4686 59.1482 32.0173 59.3388C31.5661 59.5295 31.0815 59.6288 30.5917 59.6311ZM28.6628 56.6822C28.8125 57.0726 29.0771 57.4084 29.4216 57.6452C29.7661 57.8821 30.1744 58.0089 30.5925 58.0089C31.0106 58.0089 31.4189 57.8821 31.7634 57.6452C32.1079 57.4084 32.3725 57.0726 32.5222 56.6822H28.6628ZM22.0539 51.2692C21.8458 51.2692 21.6457 51.1893 21.495 51.0459C21.3443 50.9026 21.2544 50.7068 21.244 50.499C21.2335 50.2912 21.3034 50.0874 21.439 49.9297C21.5747 49.772 21.7658 49.6724 21.9728 49.6516L38.9244 47.9149C39.0321 47.9007 39.1415 47.9082 39.2462 47.9371C39.3509 47.966 39.4487 48.0156 39.5339 48.083C39.619 48.1504 39.6897 48.2342 39.7419 48.3295C39.794 48.4248 39.8265 48.5295 39.8373 48.6376C39.8482 48.7456 39.8373 48.8548 39.8051 48.9585C39.773 49.0623 39.7204 49.1585 39.6503 49.2415C39.5803 49.3245 39.4943 49.3926 39.3975 49.4418C39.3006 49.4909 39.1949 49.5201 39.0866 49.5276L22.1349 51.2643C22.108 51.2675 22.081 51.2691 22.0539 51.2692ZM22.1787 54.6008C21.9637 54.6116 21.7532 54.5365 21.5935 54.392C21.4339 54.2476 21.3381 54.0456 21.3274 53.8306C21.3166 53.6155 21.3917 53.405 21.5362 53.2453C21.6806 53.0857 21.8826 52.99 22.0976 52.9792L38.9244 51.2554C39.0321 51.2412 39.1415 51.2487 39.2462 51.2776C39.3509 51.3065 39.4487 51.3561 39.5339 51.4235C39.619 51.4909 39.6897 51.5747 39.7419 51.67C39.794 51.7653 39.8265 51.8701 39.8373 51.9781C39.8482 52.0862 39.8373 52.1953 39.8051 52.2991C39.773 52.4028 39.7204 52.499 39.6503 52.582C39.5803 52.6651 39.4943 52.7332 39.3975 52.7823C39.3006 52.8314 39.1949 52.8606 39.0866 52.8681L22.2614 54.5968C22.234 54.5997 22.2063 54.6011 22.1787 54.6008ZM30.5285 7.81704C30.3134 7.81704 30.1072 7.73162 29.9551 7.57956C29.8031 7.4275 29.7176 7.22127 29.7176 7.00623V3.6819C29.7176 3.46686 29.8031 3.26063 29.9551 3.10857C30.1072 2.95652 30.3134 2.87109 30.5285 2.87109C30.7435 2.87109 30.9497 2.95652 31.1018 3.10857C31.2538 3.26063 31.3393 3.46686 31.3393 3.6819V7.00623C31.3393 7.22127 31.2538 7.4275 31.1018 7.57956C30.9497 7.73162 30.7435 7.81704 30.5285 7.81704ZM20.7898 10.4611C20.6472 10.4614 20.5071 10.424 20.3835 10.3529C20.2599 10.2817 20.1573 10.1792 20.086 10.0557L18.4263 7.17893C18.3205 6.9928 18.2926 6.77237 18.3487 6.56574C18.4048 6.35912 18.5403 6.18306 18.7257 6.07601C18.9111 5.96895 19.1314 5.93958 19.3384 5.99431C19.5454 6.04903 19.7223 6.18341 19.8306 6.36812L21.4912 9.24488C21.5623 9.36808 21.5997 9.50782 21.5998 9.65007C21.5998 9.79233 21.5624 9.93209 21.4914 10.0553C21.4203 10.1786 21.3181 10.2809 21.1949 10.3522C21.0718 10.4234 20.9321 10.4609 20.7898 10.4611ZM13.6749 17.6206C13.5326 17.6209 13.3927 17.5834 13.2695 17.5119L10.3944 15.8506C10.2988 15.7991 10.2145 15.729 10.1466 15.6444C10.0786 15.5598 10.0283 15.4624 9.99864 15.358C9.969 15.2536 9.96062 15.1443 9.974 15.0366C9.98739 14.9289 10.0223 14.825 10.0766 14.731C10.1308 14.637 10.2035 14.5549 10.2901 14.4895C10.3767 14.4241 10.4756 14.3767 10.5808 14.3503C10.6861 14.3238 10.7956 14.3187 10.9028 14.3353C11.0101 14.3519 11.1129 14.3899 11.2052 14.447L14.0812 16.1076C14.2357 16.1968 14.3565 16.3346 14.4248 16.4995C14.4931 16.6644 14.5051 16.8472 14.4589 17.0196C14.4127 17.192 14.3109 17.3443 14.1693 17.453C14.0277 17.5616 13.8542 17.6205 13.6758 17.6206H13.6749ZM11.0966 27.377H7.77224C7.5572 27.377 7.35096 27.2916 7.19891 27.1396C7.04685 26.9875 6.96143 26.7813 6.96143 26.5662C6.96143 26.3512 7.04685 26.145 7.19891 25.9929C7.35096 25.8408 7.5572 25.7554 7.77224 25.7554H11.0966C11.3116 25.7554 11.5178 25.8408 11.6699 25.9929C11.8219 26.145 11.9074 26.3512 11.9074 26.5662C11.9074 26.7813 11.8219 26.9875 11.6699 27.1396C11.5178 27.2916 11.3116 27.377 11.0966 27.377ZM10.8647 38.777C10.6862 38.777 10.5127 38.7181 10.3711 38.6095C10.2295 38.5008 10.1277 38.3485 10.0815 38.1761C10.0353 38.0037 10.0473 37.8209 10.1156 37.656C10.1839 37.4911 10.3047 37.3533 10.4593 37.2641L13.336 35.6035C13.4283 35.5503 13.5301 35.5157 13.6357 35.5019C13.7414 35.488 13.8487 35.495 13.9516 35.5226C14.0544 35.5502 14.1509 35.5978 14.2354 35.6627C14.3199 35.7276 14.3908 35.8084 14.444 35.9007C14.4972 35.993 14.5318 36.0948 14.5457 36.2004C14.5595 36.306 14.5525 36.4133 14.5249 36.5162C14.4973 36.6191 14.4497 36.7155 14.3848 36.8C14.32 36.8845 14.2391 36.9554 14.1468 37.0087L11.2701 38.6692C11.1467 38.7401 11.0069 38.7773 10.8647 38.777ZM40.3952 10.4611C40.253 10.4609 40.1132 10.4234 39.9901 10.3522C39.867 10.2809 39.7647 10.1786 39.6936 10.0553C39.6226 9.93209 39.5852 9.79233 39.5852 9.65007C39.5853 9.50782 39.6227 9.36808 39.6939 9.24488L41.3512 6.36812C41.4594 6.18341 41.6364 6.04903 41.8434 5.99431C42.0504 5.93958 42.2706 5.96895 42.456 6.07601C42.6415 6.18306 42.777 6.35912 42.8331 6.56574C42.8892 6.77237 42.8613 6.9928 42.7555 7.17893L41.0949 10.0557C41.024 10.1786 40.922 10.2807 40.7992 10.3519C40.6764 10.423 40.5371 10.4607 40.3952 10.4611ZM47.5133 17.6206C47.3348 17.6205 47.1613 17.5616 47.0197 17.453C46.8782 17.3443 46.7764 17.192 46.7302 17.0196C46.684 16.8472 46.696 16.6644 46.7643 16.4995C46.8326 16.3346 46.9533 16.1968 47.1079 16.1076L49.9839 14.447C50.0762 14.3899 50.179 14.3519 50.2862 14.3353C50.3935 14.3187 50.503 14.3238 50.6082 14.3503C50.7135 14.3767 50.8124 14.4241 50.899 14.4895C50.9856 14.5549 51.0582 14.637 51.1125 14.731C51.1668 14.825 51.2017 14.9289 51.2151 15.0366C51.2284 15.1443 51.2201 15.2536 51.1904 15.358C51.1608 15.4624 51.1105 15.5598 51.0425 15.6444C50.9745 15.729 50.8902 15.7991 50.7947 15.8506L47.9187 17.5119C47.7956 17.5834 47.6557 17.6209 47.5133 17.6206ZM53.4095 27.377H50.0852C49.8702 27.377 49.6639 27.2916 49.5119 27.1396C49.3598 26.9875 49.2744 26.7813 49.2744 26.5662C49.2744 26.3512 49.3598 26.145 49.5119 25.9929C49.6639 25.8408 49.8702 25.7554 50.0852 25.7554H53.4095C53.6246 25.7554 53.8308 25.8408 53.9829 25.9929C54.1349 26.145 54.2203 26.3512 54.2203 26.5662C54.2203 26.7813 54.1349 26.9875 53.9829 27.1396C53.8308 27.2916 53.6246 27.377 53.4095 27.377ZM50.3203 38.777C50.1781 38.777 50.0384 38.7398 49.9149 38.6692L47.0398 37.0087C46.9475 36.9554 46.8667 36.8845 46.8018 36.8C46.7369 36.7155 46.6893 36.6191 46.6618 36.5162C46.6342 36.4133 46.6271 36.306 46.641 36.2004C46.6549 36.0948 46.6894 35.993 46.7426 35.9007C46.7959 35.8084 46.8668 35.7276 46.9513 35.6627C47.0358 35.5978 47.1322 35.5502 47.2351 35.5226C47.338 35.495 47.4453 35.488 47.5509 35.5019C47.6565 35.5157 47.7584 35.5503 47.8506 35.6035L50.7257 37.2641C50.8803 37.3533 51.0011 37.4911 51.0694 37.656C51.1377 37.8209 51.1497 38.0037 51.1035 38.1761C51.0573 38.3485 50.9555 38.5008 50.8139 38.6095C50.6723 38.7181 50.4988 38.777 50.3203 38.777Z" fill="white"></path>
                                <path d="M27.0977 47.6988C26.9148 47.6986 26.7373 47.6366 26.5941 47.5228C26.4509 47.409 26.3503 47.2502 26.3088 47.072L22.378 30.2063C22.3448 30.0637 22.3509 29.9147 22.3956 29.7752C22.4403 29.6357 22.522 29.5109 22.6319 29.4141C22.7419 29.3173 22.876 29.2521 23.02 29.2255C23.164 29.1988 23.3126 29.2116 23.4499 29.2626L27.1245 30.6271L30.1723 28.785C30.2989 28.7084 30.444 28.668 30.5919 28.668C30.7398 28.668 30.8849 28.7084 31.0115 28.785L34.0602 30.6271L37.7315 29.2626C37.8688 29.2116 38.0174 29.1988 38.1614 29.2255C38.3054 29.2521 38.4396 29.3173 38.5495 29.4141C38.6594 29.5109 38.7411 29.6357 38.7858 29.7752C38.8305 29.9147 38.8366 30.0637 38.8034 30.2063L34.8758 47.0712C34.827 47.2806 34.697 47.4621 34.5144 47.5757C34.3318 47.6893 34.1115 47.7257 33.9021 47.6769C33.6926 47.6281 33.5111 47.498 33.3975 47.3154C33.284 47.1328 33.2476 46.9125 33.2964 46.7031L36.8818 31.3066L34.258 32.2796C34.1434 32.3217 34.0209 32.3376 33.8994 32.3261C33.7779 32.3146 33.6605 32.276 33.5558 32.2131L30.5915 30.4269L27.6288 32.2171C27.5243 32.2804 27.4069 32.3192 27.2853 32.3307C27.1638 32.3422 27.0411 32.3261 26.9267 32.2836L24.3021 31.3107L27.8915 46.7039C27.9401 46.9134 27.9035 47.1335 27.7897 47.316C27.676 47.4984 27.4945 47.6283 27.285 47.6769C27.2236 47.6912 27.1608 47.6985 27.0977 47.6988Z" fill="white"></path>
                              </svg>