<svg width="61" height="61" viewBox="0 0 61 61" fill="none" xmlns="http://www.w3.org/2000/svg">
<g clip-path="url(#clip0_280_38709)">
<path d="M56.8171 6.71593C56.9968 6.71593 57.1747 6.75127 57.3408 6.82004C57.5068 6.8888 57.6576 6.98964 57.7847 7.1167C57.9117 7.24377 58.0126 7.39459 58.0813 7.56061C58.1501 7.72663 58.1854 7.90456 58.1854 8.08426V53.1468C58.1854 53.5097 58.0413 53.8577 57.7847 54.1144C57.528 54.371 57.18 54.5152 56.8171 54.5152H3.39439C3.02973 54.5152 2.67968 54.3717 2.42008 54.1156C2.16048 53.8595 2.01222 53.5114 2.00729 53.1468V8.15926C2.01222 7.79463 2.16048 7.44659 2.42008 7.19049C2.67968 6.9344 3.02973 6.79083 3.39439 6.79086H56.8171M56.8171 4.91638H3.39439C2.5326 4.91637 1.70578 5.25744 1.09465 5.86506C0.483519 6.47268 0.137765 7.29748 0.132812 8.15926V53.1468C0.137765 54.0086 0.483519 54.8334 1.09465 55.441C1.70578 56.0486 2.5326 56.3897 3.39439 56.3897H56.8171C57.6772 56.3897 58.5019 56.048 59.1101 55.4399C59.7183 54.8317 60.0599 54.0069 60.0599 53.1468V8.15926C60.0599 7.7334 59.9761 7.3117 59.8131 6.91826C59.6502 6.52482 59.4112 6.16733 59.1101 5.86621C58.809 5.56508 58.4515 5.32625 58.0581 5.16328C57.6647 5.00031 57.243 4.91638 56.8171 4.91638Z" fill="white"/>
<path d="M5.34341 11.7581C6.01632 11.7581 6.56183 11.2126 6.56183 10.5397C6.56183 9.86679 6.01632 9.32129 5.34341 9.32129C4.6705 9.32129 4.125 9.86679 4.125 10.5397C4.125 11.2126 4.6705 11.7581 5.34341 11.7581Z" fill="white"/>
<path d="M9.09341 11.7581C9.76632 11.7581 10.3118 11.2126 10.3118 10.5397C10.3118 9.86679 9.76632 9.32129 9.09341 9.32129C8.4205 9.32129 7.875 9.86679 7.875 10.5397C7.875 11.2126 8.4205 11.7581 9.09341 11.7581Z" fill="white"/>
<path d="M12.8415 11.7581C13.5144 11.7581 14.0599 11.2126 14.0599 10.5397C14.0599 9.86679 13.5144 9.32129 12.8415 9.32129C12.1685 9.32129 11.623 9.86679 11.623 10.5397C11.623 11.2126 12.1685 11.7581 12.8415 11.7581Z" fill="white"/>
<path d="M59.1773 13.1455H1.06836V15.02H59.1773V13.1455Z" fill="white"/>
<path d="M18.1472 21.7308V29.2287H7.14401V21.7308H18.1097M18.1097 19.8563H7.14401C6.64687 19.8563 6.17011 20.0538 5.81858 20.4054C5.46705 20.7569 5.26953 21.2337 5.26953 21.7308V29.2287C5.26953 29.7259 5.46705 30.2027 5.81858 30.5542C6.17011 30.9058 6.64687 31.1032 7.14401 31.1032H18.1097C18.6068 31.1032 19.0837 30.9058 19.4352 30.5542C19.7868 30.2027 19.9842 29.7259 19.9842 29.2287V21.7308C19.9842 21.2337 19.7868 20.7569 19.4352 20.4054C19.0837 20.0538 18.6068 19.8563 18.1097 19.8563Z" fill="white"/>
<path d="M51.1938 21.7306V43.7745H27.8003V21.7682H51.1938M51.1938 19.8937H27.8003C27.3031 19.8937 26.8263 20.0911 26.4747 20.4427C26.1232 20.7942 25.9258 21.271 25.9258 21.7682V43.7745C25.9258 44.2717 26.1232 44.7484 26.4747 45.1C26.8263 45.4515 27.3031 45.649 27.8003 45.649H51.1938C51.6909 45.649 52.1676 45.4515 52.5192 45.1C52.8707 44.7484 53.0682 44.2717 53.0682 43.7745V21.7682C53.0682 21.271 52.8707 20.7942 52.5192 20.4427C52.1676 20.0911 51.6909 19.8937 51.1938 19.8937Z" fill="white"/>
<path d="M18.1472 36.7267V44.2246H7.14401V36.7267H18.1097M18.1097 34.8522H7.14401C6.64687 34.8522 6.17011 35.0497 5.81858 35.4012C5.46705 35.7528 5.26953 36.2295 5.26953 36.7267V44.2246C5.26953 44.7217 5.46705 45.1985 5.81858 45.5501C6.17011 45.9016 6.64687 46.0991 7.14401 46.0991H18.1097C18.6068 46.0991 19.0837 45.9016 19.4352 45.5501C19.7868 45.1985 19.9842 44.7217 19.9842 44.2246V36.7267C19.9842 36.2295 19.7868 35.7528 19.4352 35.4012C19.0837 35.0497 18.6068 34.8522 18.1097 34.8522Z" fill="white"/>
<path d="M38.526 25.3832C37.9206 24.6833 37.0912 24.215 36.1792 24.058C35.2672 23.9011 34.3289 24.0652 33.5244 24.5224C32.7198 24.9797 32.0987 25.7017 31.7668 26.5656C31.4349 27.4295 31.4129 28.3817 31.7044 29.26C31.9959 30.1383 32.5829 30.8884 33.3654 31.3824C34.1479 31.8764 35.0775 32.0838 35.9958 31.9693C36.9142 31.8548 37.7643 31.4253 38.4015 30.7542C39.0387 30.0831 39.4235 29.2118 39.4903 28.2888L35.5007 28.0001L38.526 25.3832Z" fill="white"/>
<rect x="31" y="39" width="16" height="2" rx="1" fill="white"/>
<rect x="31" y="35" width="16" height="2" rx="1" fill="white"/>
</g>
<defs>
<clipPath id="clip0_280_38709">
<rect width="59.9834" height="51.6232" fill="white" transform="translate(0.132812 4.84167)"/>
</clipPath>
</defs>
</svg>
